<svg width="199" height="152" viewBox="0 0 199 152" fill="none" xmlns="http://www.w3.org/2000/svg">
<path d="M45.8011 138.937C45.8011 138.937 152.499 182.125 191.428 110.145C230.357 38.1659 90.4977 -13.6569 34.2662 20.8932C-21.9654 55.4434 -1.76493 127.294 45.8011 138.937Z" fill="#F0F6FB"/>
<path d="M114.956 15.7379C114.956 15.7379 109.537 6.6734 118.379 1.97655C127.222 -2.72031 132.925 5.62382 133.324 9.64561C133.723 13.6674 132.569 23.6956 119.256 18.5074L114.956 15.7379Z" fill="#F08304"/>
<g opacity="0.5">
<path opacity="0.5" d="M133.37 11.6181L133.296 11.4464C133.296 11.4464 125.534 17.5387 121.678 16.4534C118.213 15.4777 114.326 12.1358 113.856 6.70898C112.171 11.079 114.957 15.7401 114.957 15.7401L119.255 18.5096C130.714 22.9727 133.162 16.1647 133.37 11.6181Z" fill="#93491E"/>
</g>
<path d="M111.918 18.2193C111.918 18.2193 113.239 14.6269 117.05 16.0605C117.05 16.0605 119.076 16.9288 119.226 19.288L111.918 18.2193Z" fill="white"/>
<path d="M119.381 19.4536L111.719 18.3348L111.781 18.1678C111.805 18.1034 112.383 16.572 113.871 15.8898C114.81 15.4604 115.897 15.4723 117.097 15.9232C117.123 15.9351 119.211 16.8582 119.366 19.2747L119.381 19.4536ZM112.123 18.1034L119.065 19.1172C118.834 17.0061 117.011 16.1999 116.992 16.1927C115.871 15.7729 114.861 15.7586 113.993 16.1546C112.887 16.6579 112.311 17.7003 112.123 18.1034Z" fill="black"/>
<path d="M79.6468 74.3348C79.6468 74.3348 85.2112 71.4794 80.4592 62.9969C75.7095 54.5145 84.8385 50.1158 87.1202 48.7609C89.4018 47.406 94.5242 41.5546 93.0668 34.6297C91.6094 27.7025 102.239 16.4745 114.729 18.1943C126.348 19.7926 127.342 26.5456 129.356 30.3289C131.372 34.1121 132.311 39.5127 143.266 41.5474C154.218 43.5845 165.406 48.2098 168.727 56.9022C172.048 65.5946 163.719 71.4794 170.748 77.5884C177.777 83.6974 180.749 92.0034 177.194 96.6049C173.639 101.206 170.361 103.728 163.344 100.677C156.327 97.6258 154.566 106.48 154.566 106.48L104.652 114.383C104.654 114.378 64.3442 103.243 79.6468 74.3348Z" fill="#F08304"/>
<g opacity="0.5">
<path opacity="0.5" d="M142.34 84.5241C134.152 79.7986 130.6 65.5554 133.216 57.8863C135.832 50.2172 133.328 50.389 133.328 50.389L124.376 56.6554C124.376 56.6554 121.182 78.5916 124.23 92.0357C126.71 102.973 135.696 105.177 142.307 108.423L154.57 106.482C154.57 106.482 156.049 99.0512 161.692 100.151C157.638 91.6111 150.416 89.1828 142.34 84.5241Z" fill="#93491E"/>
</g>
<g opacity="0.5">
<path opacity="0.5" d="M79.2068 75.204C79.1351 75.3471 79.0634 75.4903 78.9965 75.6334C78.9559 75.7193 78.9153 75.8051 78.8747 75.891C78.8149 76.0174 78.7552 76.1462 78.6955 76.2727C78.6549 76.3633 78.6143 76.454 78.5736 76.5446C78.5187 76.6663 78.4661 76.7879 78.4136 76.9072C78.3729 77.0002 78.3347 77.0909 78.2965 77.1839C78.2463 77.3008 78.1985 77.4177 78.1508 77.5345C78.1125 77.6276 78.0767 77.7206 78.0385 77.8136C77.9931 77.9281 77.9477 78.045 77.9047 78.1595C77.8688 78.2526 77.8354 78.3432 77.7995 78.4362C77.7565 78.5507 77.7159 78.6628 77.6753 78.7773C77.6419 78.868 77.6108 78.961 77.5797 79.0517C77.5415 79.1638 77.5033 79.2783 77.4651 79.3904C77.434 79.481 77.4053 79.5717 77.3767 79.6599C77.3408 79.7721 77.305 79.8842 77.2715 79.9987C77.2453 80.0869 77.2166 80.1752 77.1903 80.2634C77.1569 80.3756 77.1258 80.4901 77.0924 80.6022C77.0685 80.688 77.0422 80.7739 77.0207 80.8598C76.9896 80.9743 76.9609 81.0888 76.9299 81.2033C76.9084 81.2868 76.8869 81.3679 76.8654 81.4514C76.8367 81.573 76.808 81.6923 76.7794 81.8116C76.7626 81.8855 76.7435 81.9595 76.7268 82.0334C76.6934 82.1813 76.6647 82.3292 76.6336 82.4747C76.6241 82.52 76.6145 82.5654 76.605 82.6107C76.5667 82.8015 76.5333 82.99 76.4998 83.1784C76.4879 83.2428 76.4807 83.3048 76.4688 83.3692C76.4473 83.4957 76.4282 83.6197 76.4091 83.7437C76.3971 83.8225 76.3875 83.8988 76.378 83.9775C76.3637 84.0872 76.3493 84.1946 76.335 84.3043C76.3254 84.3878 76.3159 84.4713 76.3063 84.5524C76.2944 84.655 76.2848 84.7552 76.2753 84.8553C76.2681 84.9412 76.2609 85.0271 76.2538 85.1106C76.2466 85.2084 76.237 85.3062 76.2299 85.4016C76.2251 85.4875 76.2179 85.5733 76.2131 85.6592C76.2084 85.7546 76.2036 85.8501 76.1988 85.9431C76.194 86.029 76.1916 86.1148 76.1892 86.2007C76.1869 86.2937 76.1845 86.3868 76.1821 86.4798C76.1797 86.5657 76.1797 86.6516 76.1797 86.7374C76.1797 86.8281 76.1797 86.9187 76.1797 87.0094C76.1797 87.0952 76.1821 87.1811 76.1821 87.267C76.1845 87.3576 76.1869 87.4459 76.1892 87.5365C76.1916 87.6224 76.194 87.7059 76.1988 87.7918C76.2036 87.88 76.2084 87.9659 76.2131 88.0542C76.2179 88.14 76.2227 88.2259 76.2299 88.3094C76.237 88.3953 76.2442 88.4812 76.2514 88.567C76.2585 88.6505 76.2657 88.7364 76.2729 88.8199C76.2824 88.9034 76.292 88.9892 76.3015 89.0727C76.3111 89.1586 76.3206 89.2421 76.3302 89.328C76.3398 89.4091 76.3517 89.4878 76.3637 89.5689C76.3756 89.6548 76.3875 89.7406 76.3995 89.8265C76.4067 89.8814 76.4162 89.9339 76.4258 89.9863C76.4592 90.1867 76.4927 90.3847 76.5309 90.5827C76.5452 90.6519 76.5572 90.721 76.5715 90.7878C76.5906 90.8785 76.6097 90.9691 76.6312 91.0574C76.648 91.1289 76.6623 91.1981 76.679 91.2697C76.7005 91.3603 76.722 91.4486 76.7435 91.5368C76.7603 91.606 76.777 91.6752 76.7961 91.7444C76.82 91.8326 76.8439 91.9233 76.8678 92.0115C76.8869 92.0807 76.9036 92.1475 76.9251 92.2143C76.9514 92.3026 76.9777 92.3908 77.004 92.4791C77.0231 92.5459 77.0446 92.6127 77.0637 92.6795C77.0924 92.7677 77.1186 92.856 77.1473 92.9442C77.1688 93.0086 77.1903 93.0731 77.2118 93.1375C77.2429 93.2257 77.2715 93.314 77.3026 93.4022C77.3241 93.4643 77.348 93.5263 77.3695 93.5883C77.4029 93.6766 77.4364 93.7672 77.4698 93.8555C77.4913 93.9151 77.5152 93.9723 77.5391 94.032C77.575 94.1226 77.6108 94.2133 77.6466 94.3015C77.6681 94.3564 77.692 94.4113 77.7159 94.4661C77.7541 94.5592 77.7924 94.6498 77.833 94.7428C77.8545 94.7929 77.8784 94.843 77.8999 94.8931C77.9429 94.9885 77.9859 95.0839 78.0289 95.1794C78.048 95.2199 78.0671 95.2605 78.0862 95.301C78.134 95.4036 78.1842 95.5085 78.2344 95.6111C78.2439 95.6302 78.2535 95.6493 78.263 95.6707C78.5235 96.1955 78.803 96.706 79.104 97.2069C79.1088 97.2141 79.1136 97.2213 79.1184 97.2284C79.1853 97.3381 79.2522 97.4503 79.3214 97.5576C79.3358 97.5815 79.3501 97.6053 79.3645 97.6292C79.429 97.7317 79.4959 97.8343 79.5628 97.9369C79.5819 97.9655 79.601 97.9941 79.6201 98.0228C79.6846 98.1229 79.7515 98.2207 79.8184 98.3186C79.8399 98.3496 79.859 98.3806 79.8805 98.4116C79.9474 98.5094 80.0143 98.6048 80.0812 98.7002C80.1027 98.7312 80.1242 98.7622 80.1457 98.7932C80.215 98.8887 80.2843 98.9865 80.3536 99.0819C80.3751 99.1105 80.3966 99.1391 80.4157 99.1677C80.4874 99.2655 80.559 99.361 80.6331 99.4564C80.6522 99.4826 80.6737 99.5089 80.6928 99.5351C80.7693 99.6329 80.8457 99.7331 80.9222 99.8309C80.9389 99.85 80.9533 99.8714 80.97 99.8905C81.0512 99.9931 81.1348 100.096 81.2161 100.196C81.2256 100.208 81.2376 100.222 81.2471 100.234C82.3055 101.517 83.4786 102.708 84.7234 103.803C90.5314 101.463 97.2546 98.4903 99.099 97.1736C102.181 94.9742 113.171 92.9729 114.516 81.604C115.859 70.2352 112.175 53.7783 110.548 51.9774C108.921 50.1764 103.22 31.9233 103.22 31.9233C103.22 31.9233 98.1505 31.6681 95.1784 37.9751C95.2524 39.5375 88.9498 47.6693 87.1149 48.7595C84.8333 50.1144 75.7019 54.5131 80.4539 62.9955C85.2036 71.478 79.6416 74.3333 79.6416 74.3333C79.5269 74.5528 79.4146 74.7699 79.3047 74.9846C79.2761 75.0609 79.2426 75.1325 79.2068 75.204Z" fill="#93491E"/>
</g>
<mask id="mask0" mask-type="alpha" maskUnits="userSpaceOnUse" x="0" y="9" width="199" height="143">
<path d="M45.803 138.937C45.803 138.937 152.501 182.125 191.43 110.145C230.359 38.1659 90.4996 -13.6569 34.2681 20.8932C-21.9634 55.4434 -1.76297 127.294 45.803 138.937Z" fill="white"/>
</mask>
<g mask="url(#mask0)">
<path d="M83.0059 102.994C83.0059 102.994 89.06 88.2143 102.92 85.8242C116.779 83.434 136.11 83.9445 145.691 88.5578C155.271 93.1688 160.917 101.37 160.575 133.482C160.233 165.594 84.4417 148.856 84.4417 148.856L83.0059 102.994Z" fill="#4153A0"/>
<path d="M88.6562 140.048C88.6562 140.048 96.6313 139.476 100.533 139.877C100.533 139.877 102.712 146.606 99.1567 150.616C99.1567 150.616 92.3021 149.471 90.4649 149.07L88.6562 140.048Z" fill="#F3B9AC"/>
<path d="M104.376 85.5806L107.141 72.0626C107.141 72.0626 96.3512 73.4509 96.6833 50.5749L96.9557 36.8874C96.9557 36.8874 97.3475 32.6056 102.518 32.0403C106.061 31.6539 105.638 34.7406 105.638 34.7406C105.638 34.7406 107.843 31.2126 111.295 31.5322C114.748 31.8518 115.472 34.4662 115.639 40.2198C115.806 45.9734 122.577 51.3453 127.425 49.5658C132.27 47.7863 134.191 49.5945 133.866 53.3324C133.541 57.0703 131.458 58.7854 127.924 56.9224C127.924 56.9224 128.144 74.6173 130.146 79.9582C132.148 85.2991 133.897 85.0368 134.528 85.4375C140.197 89.0395 121.698 105.74 111.551 106.546C96.4014 107.746 101.765 85.781 104.376 85.5806Z" fill="#F3B9AC"/>
<g opacity="0.5">
<g opacity="0.5">
<path opacity="0.5" d="M85.8457 133.118L91.238 117.021C91.238 117.021 87.1072 133.862 91.9261 139.876L87.5659 140.334L85.8457 133.118Z" fill="#101533"/>
</g>
</g>
<path d="M130.844 55.7611C130.821 55.7611 130.794 55.754 130.773 55.7421C130.704 55.7015 130.68 55.6132 130.72 55.5465C131.76 53.7359 132.051 52.3643 131.566 51.5843C131.146 50.9092 130.25 50.8257 129.917 50.8186L129.791 53.4211C129.786 53.4998 129.719 53.5642 129.64 53.557C129.562 53.5523 129.499 53.4855 129.504 53.4067L129.643 50.5395L129.772 50.5323C129.829 50.5276 131.203 50.4536 131.812 51.4316C132.366 52.3214 132.084 53.7526 130.974 55.6896C130.945 55.7349 130.895 55.7611 130.844 55.7611Z" fill="#DC8A79"/>
<path d="M97.4269 46.262C97.4269 46.262 97.458 46.1762 97.5225 46.0306C97.5846 45.8828 97.6945 45.6848 97.8403 45.451C97.9191 45.3389 97.9979 45.2101 98.1007 45.086C98.1962 44.9572 98.3109 44.8308 98.4328 44.702C98.5499 44.5684 98.6956 44.4491 98.8389 44.3251C98.9942 44.2154 99.1495 44.0913 99.3239 43.9935C99.4983 43.8957 99.668 43.7788 99.8567 43.6953C99.9499 43.65 100.043 43.6047 100.136 43.5641C100.234 43.5355 100.332 43.514 100.43 43.4973C100.528 43.4854 100.626 43.4687 100.722 43.4735C100.817 43.4806 100.91 43.495 101.001 43.5117C101.092 43.526 101.178 43.5474 101.259 43.5665C101.34 43.5999 101.417 43.6309 101.489 43.6667C101.632 43.7383 101.759 43.8027 101.859 43.8885C101.959 43.9768 102.038 44.0555 102.1 44.1295C102.162 44.201 102.208 44.2631 102.234 44.3084C102.263 44.3537 102.277 44.3776 102.277 44.3776C102.303 44.4205 102.289 44.4754 102.246 44.5016C102.244 44.504 102.239 44.5064 102.236 44.5064L102.227 44.5111C102.227 44.5111 102.201 44.5231 102.15 44.5445C102.1 44.566 102.031 44.5946 101.95 44.6233C101.866 44.6543 101.77 44.6829 101.668 44.7091C101.565 44.7401 101.453 44.7878 101.34 44.8165C101.283 44.8332 101.226 44.8427 101.168 44.857C101.111 44.8761 101.051 44.8976 100.994 44.9119C100.934 44.9286 100.877 44.9429 100.815 44.9501C100.755 44.962 100.695 44.9787 100.633 44.9858C100.571 44.993 100.507 44.993 100.44 44.9882C100.373 44.993 100.304 44.993 100.232 44.993C100.086 44.9835 99.9427 45.0145 99.7946 45.0455C99.6489 45.0765 99.5079 45.1385 99.3622 45.1862C99.226 45.2554 99.0779 45.3007 98.9465 45.3747C98.8796 45.4104 98.8127 45.4438 98.7482 45.4772C98.6836 45.5154 98.6215 45.5512 98.5618 45.587C98.4352 45.6561 98.3277 45.7372 98.2225 45.8064C97.8068 46.0974 97.5512 46.3384 97.5512 46.3384C97.5225 46.367 97.4747 46.3646 97.4461 46.336C97.4245 46.3169 97.4198 46.2859 97.4269 46.262Z" fill="#F08304"/>
<path d="M114.287 44.3572C114.287 44.3572 114.266 44.3453 114.225 44.319C114.187 44.2952 114.127 44.2618 114.048 44.2212C113.893 44.1401 113.675 44.028 113.403 43.9183C113.269 43.8586 113.121 43.8062 112.966 43.7537C112.811 43.6988 112.643 43.6535 112.474 43.6034C112.299 43.57 112.127 43.5175 111.946 43.4913C111.857 43.477 111.766 43.4603 111.676 43.446C111.585 43.434 111.494 43.4293 111.403 43.4197C111.224 43.3983 111.04 43.415 110.866 43.4316C110.691 43.4388 110.522 43.4841 110.359 43.4794C110.197 43.4674 110.042 43.4794 109.889 43.4507C109.736 43.4245 109.59 43.4126 109.449 43.3911C109.308 43.3744 109.172 43.3315 109.05 43.3124C108.928 43.2909 108.816 43.2671 108.72 43.2408C108.625 43.217 108.546 43.1931 108.491 43.1716C108.436 43.1526 108.405 43.1406 108.405 43.1406L108.398 43.1382C108.352 43.1215 108.328 43.0715 108.345 43.0261C108.348 43.019 108.352 43.0118 108.357 43.0047C108.357 43.0047 108.376 42.9784 108.41 42.9331C108.443 42.8854 108.496 42.8234 108.57 42.747C108.641 42.6707 108.732 42.5848 108.845 42.4942C108.954 42.3988 109.093 42.3296 109.246 42.2509C109.399 42.1722 109.571 42.0958 109.762 42.0553C109.951 42.0123 110.156 41.9575 110.369 41.9766C110.581 41.9909 110.801 42.0147 111.016 42.0887C111.231 42.1531 111.446 42.2151 111.654 42.2938C111.759 42.3296 111.864 42.363 111.965 42.4035C112.065 42.4465 112.163 42.4918 112.263 42.5347C112.464 42.6135 112.639 42.7327 112.815 42.8281C112.983 42.9403 113.15 43.0381 113.293 43.1549C113.439 43.2671 113.57 43.3744 113.687 43.4817C113.807 43.5819 113.905 43.6917 113.996 43.7799C114.082 43.8753 114.158 43.954 114.213 44.028C114.27 44.0972 114.316 44.1544 114.344 44.195C114.373 44.2331 114.387 44.2546 114.387 44.2546C114.411 44.288 114.404 44.3333 114.371 44.3572C114.347 44.3739 114.313 44.3739 114.289 44.3596L114.287 44.3572Z" fill="#F08304"/>
<g opacity="0.5">
<g opacity="0.5">
<g opacity="0.5">
<path opacity="0.5" d="M97.4269 46.2659C97.4269 46.2659 97.458 46.1801 97.5225 46.0346C97.5846 45.8867 97.6945 45.6887 97.8403 45.4549C97.9191 45.3428 97.9979 45.214 98.1007 45.0899C98.1962 44.9611 98.3109 44.8347 98.4328 44.7059C98.5499 44.5723 98.6956 44.453 98.8389 44.329C98.9942 44.2193 99.1495 44.0952 99.3239 43.9974C99.4983 43.8996 99.668 43.7827 99.8567 43.6992C99.9499 43.6539 100.043 43.6086 100.136 43.568C100.234 43.5394 100.332 43.5179 100.43 43.5012C100.528 43.4893 100.626 43.4726 100.722 43.4774C100.817 43.4846 100.91 43.4989 101.001 43.5156C101.092 43.5299 101.178 43.5513 101.259 43.5704C101.34 43.6038 101.417 43.6348 101.489 43.6706C101.632 43.7422 101.759 43.8066 101.859 43.8925C101.959 43.9807 102.038 44.0594 102.1 44.1334C102.162 44.2049 102.208 44.267 102.234 44.3123C102.263 44.3576 102.277 44.3815 102.277 44.3815C102.303 44.4244 102.289 44.4793 102.246 44.5055C102.244 44.5079 102.239 44.5103 102.236 44.5103L102.227 44.515C102.227 44.515 102.201 44.527 102.15 44.5484C102.1 44.5699 102.031 44.5985 101.95 44.6272C101.866 44.6582 101.77 44.6868 101.668 44.713C101.565 44.744 101.453 44.7918 101.34 44.8204C101.283 44.8371 101.226 44.8466 101.168 44.8609C101.111 44.88 101.051 44.9015 100.994 44.9158C100.934 44.9325 100.877 44.9468 100.815 44.954C100.755 44.9659 100.695 44.9826 100.633 44.9897C100.571 44.9969 100.507 44.9969 100.44 44.9921C100.373 44.9969 100.304 44.9969 100.232 44.9969C100.086 44.9874 99.9427 45.0184 99.7946 45.0494C99.6489 45.0804 99.5079 45.1424 99.3622 45.1901C99.226 45.2593 99.0779 45.3046 98.9465 45.3786C98.8796 45.4143 98.8127 45.4477 98.7482 45.4811C98.6836 45.5193 98.6215 45.5551 98.5618 45.5909C98.4352 45.66 98.3277 45.7411 98.2225 45.8103C97.8068 46.1013 97.5512 46.3423 97.5512 46.3423C97.5225 46.3709 97.4747 46.3685 97.4461 46.3399C97.4245 46.3208 97.4198 46.2898 97.4269 46.2659Z" fill="#F08304"/>
</g>
</g>
</g>
<g opacity="0.5">
<g opacity="0.5">
<g opacity="0.5">
<path opacity="0.5" d="M114.287 44.3572C114.287 44.3572 114.266 44.3453 114.225 44.319C114.187 44.2952 114.127 44.2618 114.048 44.2212C113.893 44.1401 113.675 44.028 113.403 43.9183C113.269 43.8586 113.121 43.8062 112.966 43.7537C112.811 43.6988 112.643 43.6535 112.474 43.6034C112.299 43.57 112.127 43.5175 111.946 43.4913C111.857 43.477 111.766 43.4603 111.676 43.446C111.585 43.434 111.494 43.4293 111.403 43.4197C111.224 43.3983 111.04 43.415 110.866 43.4316C110.691 43.4388 110.522 43.4841 110.359 43.4794C110.197 43.4674 110.042 43.4794 109.889 43.4507C109.736 43.4245 109.59 43.4126 109.449 43.3911C109.308 43.3744 109.172 43.3315 109.05 43.3124C108.928 43.2909 108.816 43.2671 108.72 43.2408C108.625 43.217 108.546 43.1931 108.491 43.1716C108.436 43.1526 108.405 43.1406 108.405 43.1406L108.398 43.1382C108.352 43.1215 108.328 43.0715 108.345 43.0261C108.348 43.019 108.352 43.0118 108.357 43.0047C108.357 43.0047 108.376 42.9784 108.41 42.9331C108.443 42.8854 108.496 42.8234 108.57 42.747C108.641 42.6707 108.732 42.5848 108.845 42.4942C108.954 42.3988 109.093 42.3296 109.246 42.2509C109.399 42.1722 109.571 42.0958 109.762 42.0553C109.951 42.0123 110.156 41.9575 110.369 41.9766C110.581 41.9909 110.801 42.0147 111.016 42.0887C111.231 42.1531 111.446 42.2151 111.654 42.2938C111.759 42.3296 111.864 42.363 111.965 42.4035C112.065 42.4465 112.163 42.4918 112.263 42.5347C112.464 42.6135 112.639 42.7327 112.815 42.8281C112.983 42.9403 113.15 43.0381 113.293 43.1549C113.439 43.2671 113.57 43.3744 113.687 43.4817C113.807 43.5819 113.905 43.6917 113.996 43.7799C114.082 43.8753 114.158 43.954 114.213 44.028C114.27 44.0972 114.316 44.1544 114.344 44.195C114.373 44.2331 114.387 44.2546 114.387 44.2546C114.411 44.288 114.404 44.3333 114.371 44.3572C114.347 44.3739 114.313 44.3739 114.289 44.3596L114.287 44.3572Z" fill="#F08304"/>
</g>
</g>
</g>
<g opacity="0.5">
<g opacity="0.5">
<path opacity="0.5" d="M127.969 58.9854C127.935 57.7044 127.926 56.9244 127.926 56.9244C127.252 56.4783 126.643 54.7441 126.643 54.7441C126.712 56.6954 127.431 58.1553 127.969 58.9854Z" fill="#8A4233"/>
</g>
</g>
<g opacity="0.5">
<g opacity="0.5">
<path opacity="0.5" d="M114.687 35.2525C117.1 41.2375 111.954 43.9593 120.488 48.3889C120.966 48.637 121.388 48.8302 121.768 48.9781C118.517 47.368 115.743 43.8686 115.638 40.2118C115.473 34.4558 114.747 31.8438 111.294 31.5242C109.997 31.4049 108.874 31.8271 107.98 32.4044C109.354 31.7007 112.787 30.539 114.687 35.2525Z" fill="#E3A393"/>
</g>
</g>
<path d="M107.447 59.2135C107.426 59.2135 107.404 59.2111 107.383 59.2088C103.909 58.6887 103.789 58.2331 103.723 57.9898C103.668 57.7799 103.744 57.5652 103.93 57.4221C104.439 56.821 104.573 51.003 104.399 45.7313C104.391 45.4927 104.578 45.2923 104.817 45.2852C105.053 45.2828 105.256 45.4641 105.264 45.7026C105.264 45.7312 105.357 48.5603 105.323 51.4491C105.275 55.769 104.986 57.2122 104.733 57.756C105.268 57.9493 106.472 58.1997 107.509 58.3548C107.746 58.3906 107.908 58.61 107.872 58.8462C107.841 59.0585 107.657 59.2135 107.447 59.2135Z" fill="#DC8A79"/>
<g opacity="0.5">
<path opacity="0.5" d="M112.062 60.7598C112.062 60.7598 110.401 64.1017 106.93 65.3779C106.93 65.3779 109.596 66.3631 111.698 64.5836C113.765 62.8375 112.062 60.7598 112.062 60.7598Z" fill="#AB1E01"/>
</g>
<path d="M111.265 49.7664C111.808 49.6216 112.096 48.9347 111.908 48.2321C111.72 47.5296 111.128 47.0774 110.585 47.2222C110.042 47.367 109.754 48.0539 109.942 48.7565C110.13 49.459 110.722 49.9112 111.265 49.7664Z" fill="#36332F"/>
<path d="M101.032 51.3347C101.51 51.1933 101.738 50.5391 101.54 49.8733C101.343 49.2076 100.795 48.7825 100.317 48.9238C99.8389 49.0651 99.6112 49.7194 99.8085 50.3851C100.006 51.0509 100.554 51.476 101.032 51.3347Z" fill="#36332F"/>
<path d="M17.3788 134.274L8.93785 100.339C8.93785 100.339 6.88555 95.7829 14.8678 95.7829C22.85 95.7829 77.3709 92.5937 77.3709 92.5937C77.3709 92.5937 81.2485 91.2268 82.8469 101.933C84.4428 112.638 91.7441 153.405 91.7441 153.405L17.3788 134.274Z" fill="#BAC2E4"/>
<path d="M17.3788 134.274L8.93785 100.339C8.93785 100.339 6.88555 95.7829 14.8678 95.7829C22.85 95.7829 77.3709 92.5937 77.3709 92.5937C77.3709 92.5937 81.2485 91.2268 82.8469 101.933C84.4428 112.638 91.7441 153.405 91.7441 153.405L17.3788 134.274Z" fill="#8A98C8"/>
<path d="M88.397 152.556C87.3482 146.681 81.1148 111.74 79.655 101.945C78.642 95.149 76.7116 93.224 75.4334 92.7207C65.7166 93.2837 21.9589 95.7979 14.8703 95.7979C6.88566 95.7979 8.94035 100.354 8.94035 100.354L17.3813 134.289L88.397 152.556Z" fill="#BAC2E4"/>
<g opacity="0.5">
<g opacity="0.5">
<path opacity="0.5" d="M140.449 136.027L140.731 116.93C140.731 116.93 140.167 135.572 134.82 137.058C129.473 138.544 107.691 138.894 107.691 138.894C107.691 138.894 137.917 140.335 138.516 140.855C138.516 140.855 137.738 139.71 137.668 139.243C137.599 138.775 138.454 139.56 139.14 140.068C139.823 140.576 138.834 138.441 138.918 138.124C139.001 137.807 138.743 137.389 139.384 137.599C140.019 137.809 140.488 136.604 140.449 136.027Z" fill="#101533"/>
</g>
</g>
<path d="M33.9173 82.044L33.3574 82.4434L38.4593 89.5922L39.0191 89.1928L33.9173 82.044Z" fill="#36332F"/>
<path d="M43.6213 68.7352L42.9336 68.7598L43.5523 86.0173L44.24 85.9927L43.6213 68.7352Z" fill="#36332F"/>
<path d="M55.1404 78.2009L50.2207 87.6387L50.8311 87.9559L55.7508 78.5181L55.1404 78.2009Z" fill="#36332F"/>
<g opacity="0.5">
<g opacity="0.5">
<path opacity="0.5" d="M98.084 150.43C98.7362 150.54 99.1543 150.611 99.1543 150.611C102.712 146.602 100.53 139.872 100.53 139.872C100.433 139.863 100.327 139.853 100.225 139.844C100.213 139.853 100.201 139.863 100.186 139.872C100.186 139.872 102.337 144.34 98.1222 150.354C98.1222 150.354 98.1055 150.382 98.084 150.43Z" fill="#EB856C"/>
</g>
</g>
<g opacity="0.5">
<path opacity="0.5" d="M114.075 85.6843L117.346 69.2441C117.346 69.2441 113.158 71.7083 107.13 72.1162L104.38 85.5698C102.526 85.713 99.2886 96.8218 102.982 102.828C101.864 99.46 98.8251 87.0679 114.075 85.6843Z" fill="#EB856C"/>
</g>
<path d="M32.6549 125.471L31.9644 122.324C31.9477 122.246 31.9931 122.181 32.0648 122.184L32.3873 122.191C32.459 122.193 32.533 122.258 32.5498 122.336L33.2402 125.483C33.0347 125.332 32.7958 125.328 32.6549 125.471Z" fill="white"/>
<path d="M32.2233 122.186L32.0608 122.184C31.9892 122.181 31.9438 122.246 31.9605 122.324L32.651 125.471C32.7179 125.399 32.8134 125.363 32.9209 125.368L32.2233 122.186Z" fill="white"/>
<path d="M32.5513 122.337C32.5345 122.258 32.4603 122.191 32.3884 122.191L32.065 122.184C31.9932 122.181 31.9476 122.246 31.9644 122.325L32.5513 122.337Z" fill="white"/>
<path d="M33.1531 119.836L32.9458 119.831C32.9458 119.831 32.9172 119.738 32.9815 119.74L33.1317 119.743L33.1531 119.836Z" fill="white"/>
<path d="M33.3673 125.592C33.3362 125.592 33.3051 125.563 33.298 125.53L32.5836 122.281C32.5669 122.207 32.5 122.145 32.4307 122.145L31.9935 122.135C31.9242 122.133 31.8836 122.193 31.8979 122.267L32.6123 125.515C32.6194 125.549 32.6003 125.575 32.5717 125.575C32.5406 125.575 32.5095 125.547 32.5024 125.513L31.788 122.264C31.757 122.123 31.8358 122.011 31.9648 122.014L32.402 122.023C32.531 122.026 32.6601 122.143 32.6911 122.283L33.4055 125.532C33.415 125.563 33.3983 125.589 33.3673 125.592Z" fill="white"/>
<path d="M32.253 122.331L31.9644 122.324C31.9477 122.246 31.993 122.181 32.0646 122.184L32.222 122.186L32.253 122.331Z" fill="white"/>
<path d="M34.8223 125.623C34.7913 125.623 34.7602 125.594 34.753 125.561L34.0387 122.312C34.022 122.238 33.9551 122.179 33.8858 122.176L33.4486 122.167C33.3817 122.164 33.3387 122.224 33.3554 122.298L34.0697 125.547C34.0769 125.58 34.0578 125.606 34.0267 125.606C33.9957 125.606 33.9646 125.578 33.9575 125.544L33.2431 122.295C33.212 122.155 33.2909 122.043 33.4199 122.045L33.8571 122.054C33.9861 122.057 34.1151 122.174 34.1462 122.315L34.8606 125.563C34.8725 125.597 34.8534 125.623 34.8223 125.623Z" fill="white"/>
<path d="M34.1081 125.502L33.4177 122.356C33.4009 122.277 33.4439 122.213 33.518 122.215L33.8382 122.222C33.9098 122.224 33.9839 122.289 34.0006 122.368L34.6911 125.514C34.4856 125.366 34.2467 125.359 34.1081 125.502Z" fill="white"/>
<path d="M33.6745 122.217L33.512 122.215C33.4403 122.213 33.3949 122.277 33.4117 122.356L34.1021 125.502C34.169 125.43 34.2646 125.395 34.3697 125.399L33.6745 122.217Z" fill="white"/>
<path d="M34.001 122.368C33.9818 122.289 33.9099 122.222 33.8357 122.222L33.5123 122.215C33.4404 122.213 33.3949 122.277 33.4117 122.356L34.001 122.368Z" fill="white"/>
<path d="M33.7086 122.359L33.4177 122.352C33.401 122.273 33.4439 122.209 33.5178 122.211L33.68 122.213L33.7086 122.359Z" fill="white"/>
<path d="M36.2731 125.652C36.242 125.652 36.2109 125.624 36.2038 125.59L35.4894 122.341C35.4727 122.267 35.4058 122.208 35.3365 122.205L34.8993 122.196C34.8324 122.196 34.7918 122.253 34.8061 122.327L35.5205 125.576C35.5324 125.609 35.5157 125.64 35.487 125.643C35.4584 125.645 35.4249 125.621 35.413 125.588C35.4106 125.583 35.4106 125.578 35.4106 125.574L34.6962 122.325C34.6652 122.184 34.744 122.072 34.873 122.074L35.3102 122.084C35.4392 122.086 35.5683 122.203 35.5993 122.344L36.3137 125.593C36.3232 125.626 36.3041 125.652 36.2731 125.652Z" fill="white"/>
<path d="M35.5573 125.533L34.8669 122.387C34.8502 122.308 34.8932 122.244 34.9672 122.246L35.2898 122.253C35.3614 122.253 35.4355 122.32 35.4522 122.399L36.1427 125.545C35.9372 125.397 35.6983 125.392 35.5573 125.533Z" fill="white"/>
<path d="M35.1311 122.249L34.971 122.246C34.8993 122.244 34.8539 122.306 34.8707 122.385L35.5611 125.531C35.628 125.459 35.7236 125.424 35.8287 125.428L35.1311 122.249Z" fill="white"/>
<path d="M35.4536 122.399C35.4369 122.32 35.3626 122.253 35.2908 122.253L34.9674 122.246C34.8955 122.244 34.85 122.306 34.8668 122.385L35.4536 122.399Z" fill="white"/>
<path d="M35.1578 122.394L34.8669 122.387C34.8502 122.308 34.8931 122.244 34.967 122.246L35.1268 122.249L35.1578 122.394Z" fill="white"/>
<path d="M36.3985 122.154C36.3865 122.154 36.3722 122.149 36.3603 122.14L33.5434 119.976L33.5148 119.955C33.4431 119.914 33.3905 119.838 33.3738 119.759C33.3666 119.723 33.3332 119.695 33.3021 119.695L32.9437 119.688C32.9103 119.685 32.8912 119.714 32.8983 119.75C32.9175 119.828 32.896 119.902 32.8434 119.941L32.8243 119.96L30.9368 122.021C30.9177 122.04 30.8819 122.035 30.8556 122.009C30.8293 121.982 30.8245 121.944 30.8437 121.923L32.7335 119.864L32.755 119.843C32.7932 119.805 32.8004 119.797 32.7908 119.75C32.7693 119.647 32.8267 119.566 32.9198 119.568L33.2758 119.576C33.369 119.578 33.4646 119.661 33.4861 119.766C33.498 119.816 33.5076 119.824 33.5625 119.862L33.5936 119.886L36.4104 122.047C36.4391 122.068 36.451 122.106 36.4367 122.133C36.4295 122.145 36.4152 122.154 36.3985 122.154Z" fill="white"/>
<path d="M32.9008 120.006L31.1113 121.919C31.2093 121.914 31.312 121.943 31.41 122.002C31.41 122.002 33.3333 121.139 33.2329 120.199L33.1541 119.839L32.9462 119.834C32.9605 119.903 32.9438 119.968 32.9008 120.006Z" fill="white"/>
<path d="M33.4864 120.019L36.136 122.03C36.0356 122.021 35.9425 122.044 35.8708 122.099C35.8708 122.099 33.5461 121.143 33.2331 120.198L33.1543 119.838L33.3622 119.843C33.3789 119.912 33.4267 119.976 33.4864 120.019Z" fill="white"/>
<path d="M33.1542 119.843L33.3614 119.848C33.3614 119.848 33.3495 119.755 33.2852 119.752L33.1328 119.75L33.1542 119.843Z" fill="white"/>
<path d="M40.0115 120.812L40.4272 122.797L40.6494 122.818L40.8429 123.846L40.463 123.834L40.3077 123.221L39.0152 123.178L39.1179 123.791L38.738 123.779L38.5039 122.751L38.6855 122.744C38.738 122.575 38.7739 122.403 38.7834 122.215C38.7954 121.974 38.7667 121.711 38.7046 121.416L38.5684 120.771L40.0115 120.812ZM39.1872 121.544C39.2469 121.823 39.2708 122.095 39.2565 122.336C39.2469 122.482 39.223 122.627 39.1872 122.739L39.9207 122.766L39.6005 121.239L39.1179 121.222L39.1872 121.544Z" fill="white"/>
<path d="M42.7607 122.082C42.9255 122.874 42.5887 123.339 41.9412 123.318C41.2842 123.296 40.7872 122.74 40.6439 122.053C40.491 121.328 40.8016 120.803 41.4538 120.825C42.1347 120.849 42.6197 121.416 42.7607 122.082ZM41.1695 122.06C41.2698 122.533 41.5422 122.874 41.8767 122.886C42.2136 122.898 42.3354 122.552 42.2351 122.082C42.1443 121.648 41.8767 121.269 41.5326 121.257C41.1958 121.247 41.0715 121.591 41.1695 122.06Z" fill="white"/>
<path d="M45.0104 122.463C44.9388 122.172 44.8575 121.822 44.7835 121.469H44.7739C44.7691 121.774 44.75 122.115 44.7237 122.397L44.6521 123.329L44.2626 123.315L43.8302 122.37C43.6988 122.084 43.5507 121.738 43.4336 121.421H43.4264C43.4814 121.748 43.5507 122.12 43.5961 122.421L43.749 123.337L43.2855 123.32L42.9199 120.908L43.5865 120.93L43.9712 121.743C44.0978 122.025 44.2316 122.33 44.3391 122.614H44.3486C44.3534 122.337 44.3606 122.02 44.3773 121.753L44.4442 120.958L45.0965 120.98L45.7248 123.399L45.2374 123.382L45.0104 122.463Z" fill="white"/>
<path d="M46.2168 121.174C46.3506 121.079 46.5608 120.993 46.8643 121.005C47.3493 121.022 47.6909 121.296 47.765 121.651C47.8271 121.952 47.6837 122.148 47.4424 122.207L47.4448 122.214C47.7291 122.265 48.0158 122.479 48.0827 122.806C48.195 123.343 47.7363 123.512 47.323 123.498C47.0936 123.491 46.8332 123.429 46.6253 123.307L46.6421 122.892C46.752 122.954 47.0004 123.047 47.2059 123.054C47.4592 123.064 47.5882 122.954 47.5476 122.754C47.4902 122.484 47.225 122.422 47.0172 122.415L46.8069 122.408L46.7233 122.007L46.9288 122.014C47.1557 122.021 47.3015 121.914 47.2609 121.723C47.2274 121.566 47.0841 121.453 46.8714 121.446C46.7018 121.442 46.5274 121.508 46.4175 121.573L46.2168 121.174Z" fill="white"/>
<path d="M48.5525 121.101L48.746 122.029L49.5703 122.057L49.3768 121.129L49.8761 121.146L50.3826 123.562L49.8833 123.546L49.6706 122.534L48.8464 122.506L49.059 123.517L48.5573 123.5L48.0508 121.084L48.5525 121.101Z" fill="white"/>
<path d="M51.2049 122.977L51.1786 123.593L50.6602 123.576L50.8298 121.184L51.4868 121.205L52.679 123.643L52.1414 123.624L51.8404 122.999L51.2049 122.977ZM51.6803 122.589L51.4343 122.071C51.365 121.925 51.2885 121.747 51.224 121.601H51.2168C51.2144 121.744 51.2192 121.925 51.2121 122.064L51.1882 122.572L51.6803 122.589Z" fill="white"/>
<path d="M52.9646 121.253L53.1581 122.181L53.9824 122.21L53.7889 121.282L54.2882 121.298L54.7947 123.715L54.2954 123.698L54.0827 122.687L53.2585 122.658L53.4711 123.669L52.9694 123.653L52.4629 121.236L52.9646 121.253Z" fill="white"/>
<path d="M55.1877 121.327L55.3382 122.043C55.4194 122.429 55.4935 122.813 55.5413 123.135H55.5532C55.6082 122.856 55.6894 122.541 55.7659 122.289L56.043 121.356L56.5543 121.373L57.0608 123.789L56.6021 123.772L56.4516 123.059C56.3727 122.687 56.3106 122.358 56.2748 122.043H56.2652C56.2246 122.327 56.1505 122.639 56.0717 122.89L55.8041 123.746L55.2331 123.727L54.7266 121.311L55.1877 121.327Z" fill="white"/>
<path d="M57.4474 121.401L57.598 122.116C57.6792 122.503 57.7532 122.887 57.801 123.209H57.813C57.8679 122.93 57.9492 122.615 58.0256 122.362L58.3028 121.429L58.814 121.446L59.3205 123.862L58.8618 123.846L58.7113 123.132C58.6325 122.76 58.5703 122.431 58.5345 122.116H58.525C58.4843 122.4 58.4103 122.713 58.3314 122.963L58.0638 123.819L57.4928 123.8L56.9863 121.384L57.4474 121.401ZM57.641 120.859C57.6744 121 57.727 121.079 57.8321 121.083C57.9348 121.086 57.9563 121.009 57.9396 120.871L58.2741 120.883C58.3195 121.191 58.1642 121.317 57.8703 121.308C57.5812 121.298 57.3877 121.153 57.2993 120.85L57.641 120.859Z" fill="white"/>
<path d="M39.9745 124.987C40.0557 125.381 39.8813 125.581 39.6137 125.572C39.3366 125.562 39.0953 125.321 39.0212 124.975C38.9447 124.613 39.1024 124.381 39.382 124.391C39.6687 124.403 39.9052 124.649 39.9745 124.987ZM39.1669 124.978C39.2171 125.221 39.3844 125.445 39.597 125.452C39.812 125.46 39.8861 125.247 39.8335 124.99C39.7857 124.763 39.628 124.522 39.4035 124.513C39.1789 124.505 39.1144 124.727 39.1669 124.978Z" fill="white"/>
<path d="M40.165 124.44L40.2654 124.917L40.7719 124.934L40.6715 124.457L40.8077 124.462L41.0467 125.604L40.9105 125.6L40.7982 125.063L40.2917 125.046L40.404 125.583L40.2702 125.578L40.0312 124.436L40.165 124.44Z" fill="white"/>
<path d="M41.7351 124.494L41.974 125.636L41.8378 125.632L41.6252 124.613L41.2788 124.601L41.3505 124.947C41.403 125.195 41.4508 125.472 41.3266 125.574C41.2931 125.601 41.2382 125.624 41.1784 125.624L41.1354 125.505C41.176 125.498 41.2143 125.472 41.2334 125.448C41.2979 125.362 41.2597 125.14 41.2214 124.956L41.1211 124.475L41.7351 124.494Z" fill="white"/>
<path d="M42.3048 125.294L42.2714 125.649L42.1328 125.644L42.2499 124.514L42.4123 124.518L43.0096 125.673L42.8663 125.668L42.6799 125.306L42.3048 125.294ZM42.6226 125.191L42.4506 124.86C42.4123 124.783 42.3813 124.716 42.3526 124.65H42.3502C42.3478 124.716 42.3454 124.786 42.3407 124.855L42.3072 125.182L42.6226 125.191Z" fill="white"/>
<path d="M43.0505 124.537L43.1508 125.019C43.189 125.201 43.2177 125.351 43.2392 125.503L43.2416 125.506C43.2703 125.389 43.3085 125.267 43.3563 125.134L43.5713 124.556L43.7051 124.561L43.944 125.704L43.8174 125.699L43.7146 125.212C43.6764 125.029 43.6501 124.893 43.631 124.747L43.6262 124.745C43.6024 124.869 43.557 124.998 43.514 125.124L43.3061 125.682L43.1627 125.678L42.9238 124.535L43.0505 124.537ZM43.1699 124.304C43.1866 124.356 43.2129 124.411 43.287 124.413C43.3587 124.416 43.3658 124.368 43.3587 124.311L43.4638 124.313C43.4805 124.425 43.4327 124.492 43.2989 124.487C43.1723 124.482 43.0959 124.411 43.0648 124.299L43.1699 124.304Z" fill="white"/>
<path d="M44.0772 124.575L44.1775 125.052L44.684 125.069L44.5837 124.592L44.7198 124.597L44.9588 125.739L44.8226 125.734L44.7103 125.198L44.2038 125.181L44.3161 125.718L44.1823 125.713L43.9434 124.57L44.0772 124.575Z" fill="white"/>
<path d="M45.3968 125.237L45.4206 125.346L45.0394 125.334L45.0156 125.225L45.3968 125.237Z" fill="white"/>
<path d="M46.4452 125.21C46.5264 125.604 46.352 125.804 46.0844 125.794C45.8073 125.785 45.566 125.544 45.4919 125.198C45.4154 124.835 45.5731 124.604 45.8527 124.614C46.1394 124.625 46.3759 124.871 46.4452 125.21ZM45.6376 125.2C45.6878 125.444 45.8551 125.668 46.0677 125.675C46.2827 125.682 46.3568 125.47 46.3042 125.212C46.2564 124.986 46.0987 124.745 45.8742 124.735C45.6496 124.728 45.5851 124.95 45.6376 125.2Z" fill="white"/>
<path d="M47.0897 124.677L47.116 124.801L46.6644 124.787L46.7289 125.095C46.76 125.09 46.8221 125.09 46.8556 125.09C46.9559 125.092 47.0586 125.121 47.1423 125.176C47.233 125.235 47.3071 125.326 47.3334 125.46C47.3549 125.567 47.3406 125.646 47.2976 125.705C47.2307 125.794 47.0969 125.825 46.9559 125.82C46.8603 125.817 46.7887 125.808 46.7409 125.798L46.502 124.658L47.0897 124.677ZM46.8532 125.691C46.8866 125.698 46.9225 125.701 46.9678 125.703C47.0515 125.705 47.1303 125.679 47.1685 125.622C47.1948 125.581 47.2068 125.526 47.19 125.455C47.1709 125.367 47.1255 125.307 47.0658 125.266C47.0037 125.224 46.9296 125.204 46.8556 125.202C46.8245 125.202 46.7839 125.202 46.7504 125.204L46.8532 125.691Z" fill="white"/>
<path d="M47.3599 124.678L47.6705 125.172C47.7111 125.241 47.7494 125.308 47.79 125.377H47.7924C47.7995 125.317 47.8043 125.253 47.8139 125.172L47.876 124.695L48.0193 124.7L47.9238 125.279C47.8975 125.43 47.8688 125.604 47.8186 125.706C47.7709 125.797 47.704 125.842 47.6108 125.84C47.5773 125.84 47.5511 125.835 47.532 125.828L47.52 125.709C47.532 125.713 47.5487 125.716 47.5702 125.716C47.6777 125.718 47.7183 125.606 47.735 125.527C47.7398 125.501 47.7326 125.484 47.7159 125.458L47.207 124.676L47.3599 124.678Z" fill="white"/>
<path d="M48.2612 124.716L48.3376 125.078C48.3711 125.233 48.4643 125.324 48.61 125.331C48.6841 125.334 48.7557 125.31 48.8035 125.274L48.6888 124.73L48.825 124.735L49.0639 125.877L48.9278 125.873L48.825 125.388H48.8226C48.7581 125.431 48.6769 125.455 48.5861 125.45C48.4475 125.446 48.2636 125.376 48.2062 125.095L48.125 124.711L48.2612 124.716Z" fill="white"/>
<path d="M49.7291 125.367L49.3229 125.353L49.4089 125.766L49.8629 125.78L49.8892 125.904L49.3014 125.885L49.0625 124.742L49.6263 124.761L49.6526 124.885L49.2226 124.871L49.299 125.231L49.7052 125.246L49.7291 125.367Z" fill="white"/>
<path d="M49.9584 124.772L50.0588 125.249L50.5653 125.266L50.465 124.789L50.6011 124.794L50.8401 125.936L50.7039 125.932L50.5916 125.395L50.0851 125.378L50.1974 125.915L50.0612 125.91L49.8223 124.768L49.9584 124.772Z" fill="white"/>
<path d="M50.963 124.808L51.0633 125.289C51.1016 125.471 51.1302 125.621 51.1517 125.774L51.1541 125.776C51.1828 125.659 51.221 125.537 51.2688 125.404L51.4838 124.827L51.6176 124.831L51.8566 125.974L51.7299 125.969L51.6272 125.483C51.589 125.299 51.5627 125.163 51.5412 125.017L51.5364 125.015C51.5125 125.139 51.4671 125.268 51.4241 125.394L51.2163 125.95L51.0729 125.945L50.834 124.803L50.963 124.808Z" fill="white"/>
<path d="M52.5299 125.463L52.1237 125.449L52.2097 125.861L52.6637 125.876L52.6899 126L52.1022 125.981L51.8633 124.838L52.4271 124.857L52.4534 124.981L52.0234 124.967L52.0998 125.327L52.506 125.341L52.5299 125.463Z" fill="white"/>
</g>
</svg>
