<svg id="banner_kid" width="208" height="215" viewBox="0 0 208 215" fill="none" xmlns="http://www.w3.org/2000/svg">
<path d="M151 135L159.202 157L170 149.064L151 135Z" fill="#F37B4A"/>
<path d="M87.5872 60.7187C87.5872 60.7187 87.9488 58.0266 88.1334 55.296C88.3142 52.5654 110.732 51.467 110.732 51.467C110.732 51.467 111.501 59.1787 114.771 60.0812C114.771 60.0812 120.337 62.6236 111.132 66.3374C101.927 70.0511 97.919 70.5043 93.207 69.644C88.495 68.7837 86.8602 63.0768 87.5872 60.7187Z" fill="#EDC0C4"/>
<path d="M125.063 167.555C125.063 167.555 150.939 168.458 152.027 165.831C153.116 163.204 163.644 97.5396 153.296 77.8187C142.949 58.0979 116.904 58.1248 116.904 58.1248L125.063 167.555Z" fill="#434546"/>
<path d="M111.272 54.5002L95.5396 52.8564C91.4892 53.4517 88.1965 54.2544 88.1273 55.2951C87.9465 58.0257 87.5811 60.7179 87.5811 60.7179C87.2195 61.8931 87.4426 63.8978 88.3427 65.722C89.062 65.9601 89.8813 66.1637 90.816 66.3288C105.056 68.8175 111.272 54.504 111.272 54.5002Z" fill="#E59F95"/>
<path opacity="0.35" d="M125.063 167.555C125.063 167.555 150.939 168.458 152.027 165.831C153.116 163.204 163.644 97.5396 153.296 77.8187C142.949 58.0979 116.904 58.1248 116.904 58.1248L125.063 167.555Z" fill="#434546"/>
<path opacity="0.35" d="M138.775 158.763L124.504 160.072L125.062 167.557C125.062 167.557 150.937 168.46 152.026 165.833C152.099 165.656 152.214 165.188 152.368 164.47L138.775 158.763Z" fill="#040505"/>
<path d="M153.294 77.8177C147.039 65.893 135.042 61.1884 126.537 59.3335C152.236 66.35 145.27 101.533 145.27 101.533C145.27 101.533 139.377 145.233 138.773 151.336C138.169 157.438 138.773 158.767 138.773 158.767L151.836 166.083C151.924 166.007 151.986 165.922 152.021 165.838C153.109 163.203 163.637 97.5385 153.294 77.8177Z" fill="#434546"/>
<path d="M116.904 58.1248C116.97 58.1248 117.035 58.1286 117.101 58.1286C116.974 58.1248 116.904 58.1248 116.904 58.1248Z" fill="#434546"/>
<path d="M59.5156 163.05C59.5156 163.05 67.3818 157.009 124.98 164.137L126.192 214.877H65.2008L59.5156 163.05Z" fill="#DB7D43"/>
<path d="M86.3174 60.8121C86.3174 60.8121 59.3646 124.422 58.0029 130.129C56.6412 135.836 55.3719 137.741 56.5528 145.172C57.7337 152.603 51.9561 161.724 59.5185 163.053C59.5185 163.053 71.6197 157.012 124.983 164.14C124.983 164.14 130.337 165.742 129.337 161.39C128.337 157.039 127.225 156.225 129.46 150.606C131.695 144.988 130.607 129.764 130.607 129.764L119.171 103.668L112.816 76.8461L115.901 58.7229C115.901 58.7229 107.993 70.3211 97.9724 69.0538C87.9483 67.7864 87.5867 60.7161 87.5867 60.7161L86.3174 60.8121Z" fill="#EEB744"/>
<path opacity="0.5" d="M108.459 68.785C111.098 67.414 113.183 66.1812 114.821 65.0674L115.902 58.7268C115.902 58.7268 107.994 70.325 97.9734 69.0577C87.9493 67.7903 87.5877 60.72 87.5877 60.72L86.3184 60.8122C86.3184 60.8122 88.584 79.1159 108.459 68.785Z" fill="#E49944"/>
<path opacity="0.5" d="M97.9072 131.493C97.4918 131.493 79.1899 132.046 79.1899 132.046L69.7812 137.638C69.7812 137.638 70.7506 139.789 72.9046 139.466C75.0587 139.143 86.0675 136.966 87.8677 137.48C89.6679 137.995 103.146 138.264 105.131 137.404C107.116 136.543 112.032 138.41 114.663 139.101C117.294 139.792 127.333 139.309 127.541 141.659C127.749 144.009 122.902 147.95 122.487 151.821C122.071 155.692 125.248 163.98 119.159 163.396C119.148 163.396 119.14 163.396 119.129 163.392C121.021 163.623 122.964 163.872 124.975 164.141C124.975 164.141 130.33 165.743 129.334 161.391C128.333 157.044 127.222 156.226 129.457 150.607C130.814 147.189 130.945 140.223 130.838 135.288C125.11 134.807 111.128 134.258 111.128 134.258C111.128 134.258 98.3226 131.493 97.9072 131.493Z" fill="#C79141"/>
<path d="M74.9844 62.5324C74.9844 62.5324 81.8697 60.6314 86.3163 60.8119C86.3163 60.8119 83.6853 64.71 84.8623 72.6828L74.9844 62.5324Z" fill="#383A3B"/>
<path d="M116.903 58.1248C116.903 58.1248 112.364 59.5457 107.19 71.0518C102.016 82.5579 116.264 115.179 116.264 115.179C116.264 115.179 128.515 141.367 138.77 148.887L139.793 142.899C139.793 142.899 121.165 103.312 120.618 87.3623C120.072 71.4128 122.161 63.8048 132.416 62.5336C132.42 62.5336 126.338 58.1555 116.903 58.1248Z" fill="#383A3B"/>
<path d="M132.419 62.532C132.419 62.532 140.043 66.9716 138.135 76.7571C138.135 76.7571 129.55 59.3636 123.314 67.7896C123.318 67.7896 125.43 63.1657 132.419 62.532Z" fill="#434546"/>
<path opacity="0.35" d="M137.594 138.079C137.586 138.064 137.582 138.052 137.575 138.037C137.482 137.83 137.386 137.618 137.29 137.403C137.286 137.392 137.282 137.384 137.278 137.373C137.182 137.154 137.082 136.931 136.982 136.704C136.978 136.693 136.971 136.681 136.967 136.67C136.867 136.447 136.767 136.217 136.663 135.982C136.655 135.963 136.648 135.948 136.64 135.928C136.536 135.694 136.432 135.46 136.328 135.218C136.321 135.199 136.313 135.18 136.301 135.16C136.194 134.911 136.082 134.657 135.967 134.4C135.963 134.388 135.959 134.381 135.951 134.369C135.84 134.116 135.728 133.858 135.617 133.597C135.605 133.574 135.594 133.547 135.586 133.524C135.474 133.267 135.359 133.002 135.244 132.737C135.232 132.714 135.224 132.691 135.213 132.668C135.094 132.395 134.974 132.119 134.855 131.838C134.847 131.823 134.84 131.808 134.836 131.792C134.717 131.516 134.597 131.232 134.474 130.947C134.463 130.921 134.451 130.894 134.44 130.867C134.317 130.583 134.194 130.291 134.07 129.999C134.063 129.98 134.055 129.96 134.044 129.937C133.92 129.645 133.793 129.346 133.667 129.046C133.655 129.019 133.643 128.996 133.636 128.97C133.509 128.67 133.382 128.367 133.255 128.063C133.243 128.04 133.236 128.017 133.224 127.994C133.093 127.683 132.963 127.368 132.832 127.053C132.824 127.034 132.816 127.019 132.809 126.999C132.678 126.681 132.543 126.362 132.409 126.039C132.401 126.016 132.39 125.997 132.382 125.974C132.247 125.651 132.116 125.329 131.982 124.998C131.974 124.979 131.963 124.956 131.955 124.933C131.82 124.603 131.686 124.273 131.551 123.942C131.543 123.923 131.536 123.904 131.528 123.881C131.393 123.547 131.255 123.209 131.12 122.871C131.112 122.852 131.105 122.832 131.097 122.813C130.959 122.471 130.82 122.126 130.682 121.776C130.678 121.765 130.674 121.753 130.67 121.746C130.532 121.396 130.389 121.043 130.251 120.686C130.247 120.674 130.239 120.659 130.235 120.647C130.097 120.294 129.955 119.941 129.816 119.583C129.812 119.568 129.805 119.557 129.801 119.541C129.658 119.18 129.52 118.819 129.378 118.454V118.45C129.235 118.078 129.089 117.705 128.947 117.333V117.329C124.92 106.833 121.196 95.4768 120.681 88.2643L120.677 88.2605C120.677 88.2605 115.911 105.777 123.419 127.806C123.727 128.705 124.039 129.557 124.362 130.371C127.997 136.524 132.416 143.102 136.667 147.104C137.355 147.692 138.055 148.279 138.782 148.886L139.806 142.899C139.794 142.899 138.94 141.082 137.594 138.079Z" fill="#2C2D2E"/>
<path d="M112.392 95.9488L54.5519 44.6516L52.7363 51.4185L106.703 109.049L112.392 95.9488Z" fill="#666BAD"/>
<path opacity="0.2" d="M112.392 95.9488L54.5519 44.6516L52.7363 51.4185L106.703 109.049L112.392 95.9488Z" fill="#666BAD"/>
<path d="M50.1328 51.7472L54.5525 47.0657L109.974 95.9472L105.385 108.563L106.696 100.994L50.1328 51.7472Z" fill="white"/>
<path d="M48.7412 50.3313L107.309 101.529L105.251 109.048L44.0215 68.9346L48.7412 50.3313Z" fill="#666BAD"/>
<path d="M49.9238 63.5271L57.9093 55.9153L113.088 115.746L105.13 121.365L49.9238 63.5271Z" fill="#BC635D"/>
<path opacity="0.4" d="M49.9238 63.5271L57.9093 55.9153L113.088 115.746L105.13 121.365L49.9238 63.5271Z" fill="#BC635D"/>
<path d="M50.9199 64.572L57.4552 58.7268L111.126 117.137L105.129 121.369L50.9199 64.572Z" fill="white"/>
<path d="M35.1895 76.7564L49.5602 63.1458L105.131 121.367L81.0249 130.308L35.1895 76.7564Z" fill="#BC635D"/>
<path d="M138.137 76.7595C138.137 76.7595 150.027 114.001 149.18 124.028C148.334 134.056 140.553 136.053 134.66 136.713C128.767 137.374 114.935 138.042 110.942 136.713C106.949 135.384 99.4445 136.168 98.7791 135.565C98.1136 134.962 97.9713 134.056 97.9713 134.056C97.9713 134.056 96.4788 118.44 99.4753 116.808C102.472 115.176 105.557 117.987 114.542 115.994C123.528 114.001 125.978 112.641 125.978 112.641C125.978 112.641 119.631 102.848 120.67 88.2617C120.67 88.2617 119.389 74.4053 123.316 67.7882C123.316 67.792 128.605 58.909 138.137 76.7595Z" fill="#EEB744"/>
<path opacity="0.5" d="M46.4727 71.6856C46.4727 71.6856 48.9344 70.3875 51.3347 72.4153C53.7349 74.443 88.7693 114.695 88.7693 114.695C88.7693 114.695 85.9075 122.188 85.6305 122.188C85.3536 122.188 69.0442 109.837 68.9788 109.883C68.9134 109.929 46.4727 71.6856 46.4727 71.6856Z" fill="#333333"/>
<path d="M45.2715 72.2722C45.2715 72.2722 48.4718 70.0985 50.5566 72.4988C52.6453 74.8991 92.3032 120.766 92.3032 120.766L95.0882 130.309L45.2715 72.2722Z" fill="#D0E0F4"/>
<path d="M25.5566 82.4253L27.6876 80.6587L45.9587 71.9485C45.9587 71.9485 47.782 70.7503 49.9245 73.4693C52.0709 76.1884 91.3365 121.372 91.3365 121.372L95.0869 130.312L25.5566 82.4253Z" fill="#D0E0F4"/>
<path opacity="0.5" d="M25.5566 82.4253L27.6876 80.6587L45.9587 71.9485C45.9587 71.9485 47.782 70.7503 49.9245 73.4693C52.0709 76.1884 91.3365 121.372 91.3365 121.372L95.0869 130.312L25.5566 82.4253Z" fill="#D0E0F4"/>
<path opacity="0.35" d="M131.145 60.5505C131.972 61.311 132.979 62.1136 134.195 62.9624C155.251 77.6637 147.758 132.598 146.115 143.658C145.115 150.387 149.731 155.222 153.497 157.976C156.409 139.449 161.628 93.713 153.289 77.8135C148.104 67.9242 138.965 63.0008 131.145 60.5505Z" fill="black"/>
<path d="M26.3723 84.9132C26.3723 84.9132 24.4682 82.92 25.5568 82.4207C26.6454 81.9215 44.0241 74.3557 44.0241 74.3557C44.0241 74.3557 46.382 72.7696 48.9246 75.8958C51.4672 79.0219 95.087 130.308 95.087 130.308L88.0863 135.089L72.5193 138.522C72.5193 138.522 70.8845 139.248 69.3113 137.075C67.7419 134.901 26.3723 84.9132 26.3723 84.9132Z" fill="#D0E0F4"/>
<path opacity="0.5" d="M134.195 62.9626C134.195 62.9626 143.604 67.6864 145.058 71.4885C146.512 75.2906 144.716 81.8194 150.043 81.5621C155.374 81.3048 151.636 65.578 151.636 65.578L134.195 62.9626Z" fill="#434546"/>
<path d="M101.464 122.728C101.138 117.532 99.7758 116.994 99.1912 117.013C99.0873 117.109 98.9911 117.228 98.8988 117.363L97.791 131.691C97.8833 133.124 97.9718 134.057 97.9718 134.057C97.9718 134.057 98.1141 134.964 98.7796 135.567C99.2912 135.275 101.884 129.403 101.464 122.728Z" fill="#EEB744"/>
<path opacity="0.3" d="M74.2852 118.676C74.2852 118.676 81.5859 117.501 82.5629 115.577L84.0939 117.355C84.0939 117.359 75.6276 121.069 74.2852 118.676Z" fill="#D0E0F4"/>
<path opacity="0.3" d="M42.7408 104.711C42.7408 104.711 49.1261 102.829 49.5607 98.4049C49.9954 93.9806 49.5299 90.4896 51.0109 89.4719C52.4918 88.4503 53.8919 88.8574 54.2997 87.5478C54.7074 86.2382 56.3499 84.702 57.8847 86.5109C59.4194 88.3236 64.4584 94.261 64.4584 94.261C64.4584 94.261 58.954 99.6031 58.8617 99.8796C58.7694 100.156 55.7729 107.345 49.5646 108.083C43.3485 108.82 42.2215 108.344 42.7408 104.711Z" fill="#D0E0F4"/>
<path d="M81.6001 104.621C81.6385 107.24 85.0466 108.934 86.1313 111.1C87.4007 113.638 86.8583 114.664 82.8656 117.079C78.8729 119.495 73.3685 117.44 72.9415 119.798C72.5184 122.153 75.6648 123.846 75.6648 123.846C76.2111 126.807 79.1729 128.436 79.1729 128.436C80.5653 132.119 84.8004 131.938 84.8004 131.938C85.8274 135.925 92.1204 136.347 96.9016 134.657C101.683 132.967 101.621 126.623 101.441 122.034C101.26 117.444 98.898 114.725 94.1206 111.945C89.3393 109.164 86.5506 105.005 86.5506 105.005C86.5506 105.005 86.3621 104.44 85.0004 104.302C85.0004 104.302 83.958 103.849 83.3656 103.261C82.7733 102.674 81.5847 103.48 81.6001 104.621Z" fill="#EDC0C4"/>
<path d="M51.7115 102.641C51.7115 102.641 52.4616 101.339 51.4845 98.624C50.5075 95.9088 51.0153 94.0577 50.7114 92.8671C50.4114 91.6766 50.6037 89.7179 51.0114 89.4722C51.4192 89.2264 51.3961 86.7569 52.0769 86.6072C52.7578 86.4574 54.5349 86.0695 54.7887 89.6949C55.0426 93.3203 56.5466 96.0048 57.4544 95.1868C58.3622 94.3726 59.3777 92.3602 60.8355 91.5767C62.2933 90.7894 64.9359 89.5298 65.8629 89.5106C66.79 89.4875 67.5824 89.7103 67.7747 90.5628C67.967 91.4154 67.8131 92.2411 67.8131 92.2411C67.8131 92.2411 70.3903 89.5106 71.9213 90.4361C73.4522 91.3578 72.6406 93.4317 72.6406 93.4317C72.6406 93.4317 73.8868 93.8618 74.2138 94.8066C74.5446 95.7513 74.8677 96.3581 72.9252 99.9643C72.9252 99.9643 75.3793 102.269 74.9331 103.751C74.4869 105.233 74.2023 106.267 72.5482 107.365C70.8942 108.463 67.29 111.286 66.0283 111.589C64.7667 111.893 64.0858 112.081 62.8319 112.726C61.5779 113.371 60.247 115.756 60.247 115.756C60.247 115.756 53.6348 115.265 51.9307 112.768C50.219 110.268 47.6957 104.054 51.7115 102.641Z" fill="#EDC0C4"/>
<path d="M62.8285 112.72C52.2082 115.174 51.8427 102.954 51.8312 102.336C51.7697 102.535 51.712 102.639 51.712 102.639C47.6962 104.056 50.2195 110.27 51.9235 112.763C53.6275 115.259 60.2398 115.75 60.2398 115.75C60.2398 115.75 61.5745 113.366 62.8285 112.72Z" fill="#E59F95"/>
<path d="M42.7397 104.713C42.7397 104.713 35.312 106.571 37.1276 116.718C38.9432 126.864 46.1055 128.62 53.2831 125.962C60.4608 123.304 62.8264 112.724 62.8264 112.724C62.8264 112.724 59.8761 115.435 56.822 114.456C52.5023 113.069 49.652 108.023 51.8291 102.312C51.8291 102.312 44.7361 107.339 42.7397 104.713Z" fill="#EEB744"/>
<path d="M119.777 58.1218C119.777 58.1218 128.851 47.0689 128.851 39.3342C128.851 31.5995 129.094 27.855 130.063 28.2199C131.032 28.5847 136.179 31.7224 137.356 34.138C137.356 34.138 146.276 32.9283 153.173 40.0562C153.173 40.0562 161.039 38.2435 162.974 40.5401C164.909 42.8367 157.527 52.4993 156.923 56.6087C156.32 60.718 157.685 76.6636 154.158 79.6861C150.631 82.7047 148.088 81.3759 147.365 80.531C146.638 79.6861 146.519 75.3348 147.849 70.7454C147.849 70.7454 137.564 62.4116 119.777 58.1218Z" fill="#8C8D8A"/>
<path d="M134.163 52.1535C134.163 52.1535 127.274 49.4268 127.459 47.9789C127.643 46.531 136.956 39.2188 140.045 40.1251C143.13 41.0315 140.941 48.2285 140.941 48.2285L134.163 52.1535Z" fill="#434546"/>
<path d="M141.691 48.222C141.691 48.222 146.273 41.6894 148.392 43.5635C150.512 45.4377 158.616 56.2947 154.02 58.1151C149.423 59.9354 144.63 55.5343 144.63 55.5343L141.691 48.222Z" fill="#434546"/>
<path d="M141.294 58.0203C141.294 58.0203 133.785 56.9296 133.651 54.3949C133.516 51.8602 136.54 47.3476 141.282 48.3692C146.021 49.3946 145.925 59.1763 141.294 58.0203Z" fill="#D5CBC0"/>
<path d="M141.281 48.3724C140.223 48.1458 139.25 48.1919 138.381 48.4338C138.362 49.8279 138.466 51.8211 139.223 52.113C139.989 52.4087 142.108 50.9109 143.501 49.8202C142.943 49.1021 142.204 48.5721 141.281 48.3724Z" fill="black"/>
<path d="M142.169 53.6971C142.169 53.6971 144.127 55.4637 140.938 55.2832C137.749 55.1027 139.222 52.111 139.222 52.111C139.222 52.111 137.984 54.254 136.472 53.1671C134.961 52.0803 135.807 50.932 136.472 51.051" stroke="black" stroke-width="0.6554" stroke-miterlimit="10"/>
<path d="M140.939 40.7012C140.708 40.4362 140.415 40.2327 140.042 40.1252C136.957 39.2188 127.641 46.5272 127.456 47.9789C127.403 48.4206 128.007 48.9813 128.868 49.5497C128.891 49.519 135.792 39.8333 140.939 40.7012Z" fill="#D5CBC0"/>
<path opacity="0.5" d="M132.388 37.2864C133.865 35.5697 133.646 34.2102 133.646 34.2102C133.646 34.2102 131.026 35.2433 128.865 36.1957C128.853 37.1597 128.845 38.2043 128.845 39.3372C128.845 41.3458 128.23 43.581 127.322 45.7854C127.326 45.7777 127.33 45.7739 127.334 45.7662C130.046 40.4279 130.911 39.0031 132.388 37.2864Z" fill="#686968"/>
<path d="M148.392 43.5617C147.781 43.0241 146.969 43.1815 146.119 43.6808C151.762 46.5919 153.535 57.518 152.566 58.4896C153.051 58.4244 153.535 58.3053 154.02 58.1133C158.617 56.2929 150.508 45.4359 148.392 43.5617Z" fill="#D5CBC0"/>
<path d="M136.719 45.3979C136.958 44.8704 136.855 44.3088 136.489 44.1435C136.124 43.9781 135.633 44.2717 135.394 44.7993C135.155 45.3268 135.257 45.8884 135.623 46.0537C135.989 46.2191 136.479 45.9254 136.719 45.3979Z" fill="black"/>
<path d="M146.252 48.8877C146.491 48.3602 146.388 47.7985 146.023 47.6332C145.657 47.4679 145.166 47.7615 144.927 48.289C144.688 48.8165 144.791 49.3782 145.156 49.5435C145.522 49.7088 146.013 49.4152 146.252 48.8877Z" fill="black"/>
<path d="M128.85 37.6957C130.5 36.9161 132.415 35.8869 133.262 35.1687C134.896 33.7784 130.054 28.2213 130.054 28.2213C129.161 27.8871 128.884 31.0786 128.85 37.6957Z" fill="#D5CBC0"/>
<path d="M163.142 40.825C161.499 41.4433 157.199 43.3481 158.133 46.1018C158.722 47.8338 159.291 49.2125 159.71 50.1535C161.703 46.3975 163.892 42.4495 163.142 40.825Z" fill="#D5CBC0"/>
<path d="M98.6378 58.9915C110.624 58.9915 120.34 48.245 120.34 34.9886C120.34 21.7321 110.624 10.9856 98.6378 10.9856C86.652 10.9856 76.9355 21.7321 76.9355 34.9886C76.9355 48.245 86.652 58.9915 98.6378 58.9915Z" fill="#EDC0C4"/>
<path d="M97.198 13.1326C97.198 13.1326 87.7163 29.3087 78.4577 32.4386C78.4577 32.4386 77.8345 32.0892 76.9883 32.2389L77.3383 30.576L97.198 13.1326Z" fill="#E59F95"/>
<path d="M97.1958 13.1322C97.1958 13.1322 81.2942 35.046 72.6317 30.8714C63.9693 26.6968 86.1447 -6.91888 94.284 4.038C94.284 4.038 104.958 -7.21843 119.89 8.95764C134.823 25.1337 123.402 50.6998 97.1958 13.1322Z" fill="#DB7D43"/>
<path d="M77.3637 42.3559C79.8513 42.3559 81.868 40.0862 81.868 37.2865C81.868 34.4867 79.8513 32.217 77.3637 32.217C74.876 32.217 72.8594 34.4867 72.8594 37.2865C72.8594 40.0862 74.876 42.3559 77.3637 42.3559Z" fill="#EDC0C4"/>
<path d="M120.217 42.3559C122.705 42.3559 124.722 40.0862 124.722 37.2865C124.722 34.4867 122.705 32.217 120.217 32.217C117.73 32.217 115.713 34.4867 115.713 37.2865C115.713 40.0862 117.73 42.3559 120.217 42.3559Z" fill="#EDC0C4"/>
<path d="M96.2402 50.2328C96.2402 50.2328 104.226 54.899 106.68 46.0505C106.676 46.0505 102.976 50.1445 96.2402 50.2328Z" fill="#E59F95"/>
<path d="M77.5135 35.1221C77.5135 35.1221 75.2748 35.2718 75.771 37.7067C76.2672 40.1416 78.3597 39.2467 78.3597 39.2467" stroke="#E59F95" stroke-width="1.5527" stroke-miterlimit="10" stroke-linecap="round"/>
<path d="M120.365 35.2735C120.515 35.2735 122.554 34.5784 122.258 37.3589C121.962 40.1394 120.715 39.4443 120.715 39.4443" stroke="#E59F95" stroke-width="1.5527" stroke-miterlimit="10" stroke-linecap="round"/>
<path d="M91.6625 36.562C92.4145 36.562 93.0241 35.79 93.0241 34.8377C93.0241 33.8853 92.4145 33.1133 91.6625 33.1133C90.9104 33.1133 90.3008 33.8853 90.3008 34.8377C90.3008 35.79 90.9104 36.562 91.6625 36.562Z" fill="#595FA4"/>
<path d="M107.126 36.0644C107.855 36.0644 108.445 35.3387 108.445 34.4437C108.445 33.5486 107.855 32.823 107.126 32.823C106.397 32.823 105.807 33.5486 105.807 34.4437C105.807 35.3387 106.397 36.0644 107.126 36.0644Z" fill="#595FA4"/>
<path d="M99.5111 33.1348C99.5111 33.1348 99.3996 38.4653 98.6149 40.0284C97.8302 41.5953 98.0533 42.5247 100.034 42.6361" stroke="#E59F95" stroke-miterlimit="10" stroke-linecap="round"/>
<path opacity="0.5" d="M101.005 10.8692C99.212 5.8497 99.5005 2.90021 100.343 0.68042C96.5079 1.69046 94.2846 4.03315 94.2846 4.03315C86.1453 -6.92372 63.9738 26.692 72.6324 30.8666C81.291 35.0411 97.1965 13.1274 97.1965 13.1274C105.182 24.5759 111.79 30.1522 116.702 31.9265C109.536 26.3502 103.639 18.2506 101.005 10.8692Z" fill="#BF6338"/>
<path d="M117.752 41.4797V41.5796C118.106 42.2133 118.579 42.7509 119.041 43.1811C119.144 42.8661 119.241 42.5474 119.333 42.2248C118.452 41.8523 117.752 41.4797 117.752 41.4797Z" fill="#E59F95"/>
<path d="M78.3148 43.4179C79.038 42.7381 79.4765 41.5322 79.4765 41.5322C78.9072 42.1006 78.0994 42.2734 77.9609 42.2965C78.0725 42.6729 78.1879 43.0492 78.3148 43.4179Z" fill="#E59F95"/>
<path d="M87.2106 28.5969C87.7722 28.2897 88.303 28.0631 88.8723 27.8557C89.4339 27.6483 90.0108 27.4832 90.5994 27.3526C91.1879 27.2182 91.7918 27.1299 92.4034 27.0876C93.015 27.0338 93.6343 27.0607 94.2536 27.1068C94.7344 27.1414 95.096 27.56 95.0614 28.04C95.0267 28.5201 94.6075 28.8811 94.1266 28.8466C94.1036 28.8466 94.0843 28.8427 94.0613 28.8389L94.0189 28.8312C93.5074 28.7544 92.9881 28.6853 92.4572 28.6891C91.9303 28.6814 91.3956 28.716 90.8648 28.7928C90.334 28.8658 89.8031 28.9733 89.28 29.1192C88.7646 29.2613 88.2299 29.4457 87.7722 29.6492L87.7375 29.6646C87.4375 29.799 87.0836 29.6607 86.949 29.3612C86.8259 29.077 86.9451 28.7429 87.2106 28.5969Z" fill="#D86C63"/>
<path d="M104.116 27.197C104.758 27.1624 105.308 27.1932 105.897 27.2469C106.478 27.3045 107.051 27.4005 107.62 27.5388C108.189 27.6732 108.747 27.8691 109.29 28.1034C109.832 28.3415 110.347 28.6564 110.828 29.0097C111.094 29.2056 111.151 29.5781 110.955 29.8431C110.77 30.0927 110.432 30.158 110.17 30.0044L110.136 29.9814C109.713 29.7279 109.27 29.5051 108.793 29.3477C108.316 29.1941 107.828 29.0635 107.324 28.9943C106.82 28.9214 106.312 28.8791 105.801 28.8753C105.301 28.8715 104.754 28.8983 104.308 28.9636L104.285 28.9675C103.797 29.0366 103.347 28.6986 103.274 28.2147C103.2 27.7308 103.543 27.2777 104.027 27.2047C104.062 27.2008 104.089 27.197 104.116 27.197Z" fill="#D86C63"/>
<path d="M86.7407 46.348C88.1852 46.348 89.3563 45.1788 89.3563 43.7365C89.3563 42.2942 88.1852 41.125 86.7407 41.125C85.2961 41.125 84.125 42.2942 84.125 43.7365C84.125 45.1788 85.2961 46.348 86.7407 46.348Z" fill="#E59F95"/>
<path d="M112.151 46.348C113.595 46.348 114.766 45.1788 114.766 43.7365C114.766 42.2942 113.595 41.125 112.151 41.125C110.706 41.125 109.535 42.2942 109.535 43.7365C109.535 45.1788 110.706 46.348 112.151 46.348Z" fill="#E59F95"/>
<path d="M100.329 117.599C100.344 117.68 102.371 129.021 97.8669 133.153C96.8207 134.113 95.8436 134.766 94.9551 135.212C95.6205 135.066 96.2783 134.881 96.9091 134.659C101.69 132.969 101.629 126.624 101.448 122.035C101.375 120.33 101.006 118.886 100.329 117.599Z" fill="#E59F95"/>
<path d="M54.2849 88.6446C54.1464 89.8082 53.5771 92.8153 54.2926 94.5435C55.0119 96.2717 53.454 97.0629 53.9041 97.0283C54.3541 96.9976 54.6657 96.2026 55.2888 96.1681C55.912 96.1335 54.9426 96.4561 54.9772 96.7249C55.0119 96.9976 55.9466 95.5805 56.6736 95.6841C57.4006 95.7878 58.6469 94.0404 58.9238 93.376C58.3776 94.075 57.8968 94.7778 57.4467 95.1849C56.5389 95.9991 55.0388 93.3146 54.7811 89.693C54.6657 88.0378 54.231 87.2236 53.731 86.8357C53.304 86.6552 53.0078 86.5361 53.0078 86.5361C53.0078 86.5361 54.4233 87.4809 54.2849 88.6446Z" fill="#E59F95"/>
<path d="M68.5065 91.5791C68.0834 91.9401 67.8026 92.2319 67.8026 92.2319C67.8026 92.2319 67.868 91.8556 67.8565 91.3486C67.8565 91.3486 67.0602 92.735 65.8986 94.0446C66.9948 93.0884 68.218 91.99 68.5065 91.5791Z" fill="#E59F95"/>
<path d="M64.4561 95.4085C64.9754 95.0168 65.4639 94.5367 65.9024 94.0452C64.5522 95.2242 63.4021 96.1958 64.4561 95.4085Z" fill="#E59F95"/>
<path d="M65.9024 99.2847C66.2179 99.1042 67.0026 98.3975 67.9373 97.5181C66.5256 98.6779 65.4947 99.5151 65.9024 99.2847Z" fill="#E59F95"/>
<path d="M72.6376 93.4114C72.6568 93.3653 72.7568 93.085 72.8107 92.7009C72.8107 92.7009 70.0065 95.5506 67.9332 97.513C69.518 96.2073 71.5759 94.4944 72.6376 93.4114Z" fill="#E59F95"/>
<path d="M72.9256 99.9601C73.4372 99.0076 73.791 98.2664 74.0295 97.6711C73.9526 97.8363 72.4678 100.982 69.8368 102.533C67.1365 104.123 71.6716 104.069 72.1563 103.067C72.6371 102.065 72.9256 99.9601 72.9256 99.9601Z" fill="#E59F95"/>
<path d="M81.8831 117.989C85.1104 117.344 86.9183 114.579 87.1991 113.98C87.4799 113.381 88.6723 113.288 88.1645 113.196C87.6568 113.104 87.2875 113.15 87.1991 111.399C87.1106 109.648 83.0409 106.698 82.3024 105.408C81.6562 104.279 81.9254 103.668 82.0062 103.534C81.9716 103.591 81.8716 103.745 81.7254 103.979C81.6446 104.175 81.5985 104.39 81.5985 104.621C81.6369 107.24 85.045 108.933 86.1297 111.099C87.3991 113.638 86.8567 114.663 82.864 117.079C78.8713 119.495 73.3669 117.44 72.9399 119.798C72.9014 120.005 72.9014 120.205 72.913 120.397C73.2707 119.153 76.3941 118.608 76.6249 118.565C76.8788 118.519 78.6559 118.634 81.8831 117.989Z" fill="#E59F95"/>
<path d="M82.025 103.501C82.025 103.501 82.0174 103.512 82.0061 103.531C82.0174 103.516 82.025 103.501 82.025 103.501Z" fill="#E59F95"/>
<path d="M83.138 124.673C80.9224 125.088 75.668 123.848 75.668 123.848C75.7064 124.067 75.7641 124.274 75.8295 124.478C81.2455 125.503 85.2459 124.278 83.138 124.673Z" fill="#E59F95"/>
<path d="M85.4417 128.686C83.8262 129.377 79.1719 128.44 79.1719 128.44C79.245 128.632 79.3257 128.809 79.4104 128.978C87.0996 129.438 87.0188 128.01 85.4417 128.686Z" fill="#E59F95"/>
<path d="M89.9186 131.493C88.6723 132 84.7988 131.939 84.7988 131.939C84.9065 132.361 85.0796 132.742 85.2989 133.087C88.93 133.548 91.111 131.006 89.9186 131.493Z" fill="#E59F95"/>
<path opacity="0.5" d="M68.9824 68.0186L106.059 106.105L105.555 107.583L68.9824 68.0186Z" fill="#666BAD"/>
<path opacity="0.5" d="M138.137 76.759C128.609 58.9085 123.316 67.7915 123.316 67.7915C123.316 67.7915 130.544 63.4095 138.137 76.759Z" fill="#DAA442"/>
<path opacity="0.5" d="M113.091 117.015C117.438 116.147 122.7 113.313 127.616 113.313C132.532 113.313 127.908 112.856 127.208 112.702C126.508 112.553 129.704 112.622 129.489 111.861C129.277 111.101 127.604 112.276 126.535 111.101C125.465 109.926 120.092 100.682 120.703 88.6458C120.746 87.8239 120.696 87.2478 120.576 86.8792C120.626 87.7509 120.673 88.2617 120.673 88.2617C119.63 102.848 125.981 112.641 125.981 112.641C125.981 112.641 123.531 114.001 114.545 115.994C108.956 117.234 105.652 116.616 103.229 116.362C103.229 116.366 108.744 117.883 113.091 117.015Z" fill="#DAA442"/>
<path opacity="0.5" d="M51.4706 124.897C46.4855 127.65 39.8771 123.299 39.6348 123.138C39.6425 123.149 39.6502 123.161 39.6578 123.172C39.7809 123.315 40.2425 123.848 40.8964 124.578C44.0814 127.554 48.6742 127.67 53.2785 125.964C60.4561 123.303 62.8218 112.726 62.8218 112.726C62.8218 112.726 59.8715 115.438 56.8173 114.458C56.8211 114.451 56.548 122.093 51.4706 124.897Z" fill="#DAA442"/>
<path opacity="0.5" d="M163.14 40.8246C163.094 40.7248 163.04 40.6287 162.971 40.5481C161.036 38.2515 153.17 40.0642 153.17 40.0642C151.912 38.7623 150.585 37.7446 149.258 36.9419C152.589 39.5688 154.128 41.8155 154.128 41.8155C160.082 39.1886 163.14 40.8246 163.14 40.8246Z" fill="#434546"/>
<path opacity="0.5" d="M93.202 214.862L84.5703 175.47L86.8398 214.862H93.202Z" fill="#77442D"/>
<path opacity="0.5" d="M91.5361 163.05C98.4599 164.674 121.909 166.333 122.924 169.652C123.939 172.97 125.22 174.494 125.317 178.5L124.974 164.137C81.3428 158.737 66.2528 160.895 61.4984 162.259C60.3291 162.804 59.5098 163.05 59.5098 163.05C59.5098 163.05 84.6124 161.425 91.5361 163.05Z" fill="#A96138"/>
<path d="M39.8491 3.67527L29.5788 26.6951C29.5788 26.6951 27.4748 32.2484 25.1322 31.4265C22.7897 30.6047 25.663 24.5098 25.663 24.5098L35.9449 1.37867C35.9449 1.37867 38.7298 0.0997885 39.8491 3.67527Z" fill="#74ADDD"/>
<path d="M25.5818 31.6325L24.4163 32.9614L24.6894 31.2178L25.5818 31.6325Z" fill="#231F20"/>
<path d="M30.3363 24.8707C30.3363 24.8707 28.8053 22.2323 26.0781 23.5151" stroke="#231F20" stroke-miterlimit="10"/>
<path d="M177.404 57.4552C177.404 57.4552 169.065 66.273 165.957 74.2727C165.957 74.2727 175.443 82.764 179.447 78.5164C183.451 74.2727 179.447 69.1303 179.447 69.1303C179.447 69.1303 183.863 69.8638 185.497 66.5188C187.132 63.1737 184.024 59.7442 184.024 59.7442L178.054 53.1309L175.439 55.0895L177.404 57.4552Z" fill="#FBB82B"/>
<path d="M173.398 70.2708C173.398 70.2708 171.925 71.7801 171.252 73.251C171.252 73.251 174.01 76.1275 175.299 73.923C176.587 71.7225 173.398 70.2708 173.398 70.2708Z" fill="#F0F6FB"/>
<path d="M180.509 60.9458C180.509 60.9458 177.443 64.1296 178.116 64.5597C178.789 64.9898 180.324 65.0513 181.366 63.3346C182.409 61.6179 180.509 60.9458 180.509 60.9458Z" fill="#F0F6FB"/>
<path d="M0.791016 130.836L23.6818 167.405L38.0718 139.976L0.791016 130.836ZM15.6695 139.976L28.7516 144.059L24.3357 154.182L15.6695 139.976Z" fill="#F6D9A4"/>
<path d="M2.03906 132.593L2.59297 132.254" stroke="#231F20" stroke-width="1.2753" stroke-miterlimit="10"/>
<path d="M6.5332 139.65L7.08711 139.315" stroke="#231F20" stroke-width="1.2753" stroke-miterlimit="10"/>
<path d="M9.375 144.281L9.92506 143.947" stroke="#231F20" stroke-width="1.2753" stroke-miterlimit="10"/>
<path d="M10.0293 145.347L10.5794 145.009" stroke="#231F20" stroke-width="1.2753" stroke-miterlimit="10"/>
<path d="M10.7461 146.487L11.2962 146.152" stroke="#231F20" stroke-width="1.2753" stroke-miterlimit="10"/>
<path d="M12.3203 148.977L12.8704 148.638" stroke="#231F20" stroke-width="1.2753" stroke-miterlimit="10"/>
<path d="M13.0957 150.263L13.6458 149.928" stroke="#231F20" stroke-width="1.2753" stroke-miterlimit="10"/>
<path d="M13.9531 151.691L14.507 151.356" stroke="#231F20" stroke-width="1.2753" stroke-miterlimit="10"/>
<path d="M14.7324 152.897L15.2825 152.559" stroke="#231F20" stroke-width="1.2753" stroke-miterlimit="10"/>
<path d="M18.6836 159.109L19.2375 158.77" stroke="#231F20" stroke-width="1.2753" stroke-miterlimit="10"/>
<path d="M19.4512 160.305L20.0051 159.966" stroke="#231F20" stroke-width="1.2753" stroke-miterlimit="10"/>
<path d="M20.2207 161.587L20.7708 161.252" stroke="#231F20" stroke-width="1.2753" stroke-miterlimit="10"/>
<path d="M21.0762 163.06L21.6262 162.721" stroke="#231F20" stroke-width="1.2753" stroke-miterlimit="10"/>
<path d="M2.68359 133.664L3.54196 133.141" stroke="#231F20" stroke-width="1.2753" stroke-miterlimit="10"/>
<path d="M3.28711 134.636L4.13008 134.098" stroke="#231F20" stroke-width="1.2753" stroke-miterlimit="10"/>
<path d="M5.26758 137.778L6.11055 137.244" stroke="#231F20" stroke-width="1.2753" stroke-miterlimit="10"/>
<path d="M7.13086 140.775L7.97383 140.241" stroke="#231F20" stroke-width="1.2753" stroke-miterlimit="10"/>
<path d="M7.8457 141.858L8.68867 141.32" stroke="#231F20" stroke-width="1.2753" stroke-miterlimit="10"/>
<path d="M8.48242 142.918L9.32539 142.384" stroke="#231F20" stroke-width="1.2753" stroke-miterlimit="10"/>
<path d="M16.2559 155.273L17.0988 154.739" stroke="#231F20" stroke-width="1.2753" stroke-miterlimit="10"/>
<path d="M17.1172 156.684L17.9602 156.149" stroke="#231F20" stroke-width="1.2753" stroke-miterlimit="10"/>
<path d="M17.8809 157.938L18.7238 157.404" stroke="#231F20" stroke-width="1.2753" stroke-miterlimit="10"/>
<path d="M21.9551 164.368L22.798 163.83" stroke="#231F20" stroke-width="1.2753" stroke-miterlimit="10"/>
<path d="M22.9395 165.958L23.7824 165.424" stroke="#231F20" stroke-width="1.2753" stroke-miterlimit="10"/>
<path d="M11.4863 147.778L12.3293 147.24" stroke="#231F20" stroke-width="1.2753" stroke-miterlimit="10"/>
<path d="M15.3672 153.734L16.2102 153.199" stroke="#231F20" stroke-width="1.2753" stroke-miterlimit="10"/>
<path d="M3.9375 135.753L4.55295 135.356" stroke="#231F20" stroke-width="1.2753" stroke-miterlimit="10"/>
<path d="M5.94336 138.751L6.55496 138.355" stroke="#231F20" stroke-width="1.2753" stroke-miterlimit="10"/>
<path d="M4.61523 136.663L5.25761 136.233" stroke="#231F20" stroke-width="1.2753" stroke-miterlimit="10"/>
<path d="M185.934 129.135L203.447 104.836L207.897 103.004L206.955 107.397L189.934 131.715L185.934 129.135Z" fill="#FBB82B"/>
<path d="M207.418 105.243L207.899 103.004L205.387 104.037C205.718 104.532 206.318 105.028 207.418 105.243Z" fill="#231F20"/>
<path d="M5.32617 73.3511L9.24965 71.6344L12.1923 78.0019L11.4576 65.1478L23.355 59.6367" stroke="#FFF8FA" stroke-width="1.2753" stroke-miterlimit="10"/>
<path d="M14.0909 67.6562C14.0909 67.6562 13.66 71.9422 15.1948 71.9422C16.7296 71.9422 16.9104 69.1272 16.9104 69.1272L17.095 75.3103" stroke="#FFF8FA" stroke-width="1.2753" stroke-miterlimit="10"/>
<path d="M21.5147 65.0239C21.5147 65.0239 19.6761 65.0239 20.1646 67.1669C20.657 69.3099 22.4956 68.2691 22.7418 67.4127C22.988 66.5563 22.8033 65.0239 21.5147 65.0239Z" stroke="#FFF8FA" stroke-width="1.2753" stroke-miterlimit="10"/>
<path d="M22.74 66.1267C22.74 66.1267 24.4556 72.8014 22.74 73.4121C21.0245 74.0227 20.8398 72.1255 20.8398 72.1255" stroke="#FFF8FA" stroke-width="1.2753" stroke-miterlimit="10"/>
<path d="M36 200C39.866 200 43 196.642 43 192.5C43 188.358 39.866 185 36 185C32.134 185 29 188.358 29 192.5C29 196.642 32.134 200 36 200Z" fill="#EEB744"/>
<path d="M180 194.456L184.706 204L193 194L180 194.456Z" fill="#74ADDD"/>
</svg>
