<svg width="224" height="161" viewBox="0 0 224 161" fill="none" xmlns="http://www.w3.org/2000/svg">
<path d="M39.7774 144.961C39.7774 144.961 -21.8522 109.791 8.96167 49.0673C39.7755 -11.6562 101.452 28.2401 118.374 17.7906C135.296 7.34103 142.325 -2.04782 162.784 0.97495C183.242 3.99772 192.84 30.107 195.621 48.2417C198.402 66.3763 198.642 71.5982 203.704 75.1707C208.766 78.7433 225.982 98.03 222.901 119.409C219.907 140.195 207.997 145.246 207.997 145.246L39.7774 144.961Z" fill="#F9F3E3"/>
<path d="M181.03 98.8557L181.915 98.4186L181.03 98.1797V98.1738H168.416V104.427H168.433L169.115 104.724L169.719 104.427H181.03V98.8557Z" fill="#C0BDBD"/>
<path d="M181.916 98.4199H169.115V104.726H181.916V98.4199Z" fill="#E3DBC9"/>
<path d="M171.703 99.8984C171.607 99.8985 171.512 99.9076 171.418 99.9256C171.775 99.9931 172.099 100.187 172.331 100.475C172.564 100.762 172.691 101.124 172.691 101.498C172.691 101.872 172.564 102.234 172.331 102.522C172.099 102.809 171.775 103.003 171.418 103.071C171.642 103.114 171.873 103.106 172.094 103.046C172.315 102.987 172.521 102.879 172.697 102.728C172.872 102.578 173.013 102.39 173.11 102.177C173.207 101.964 173.257 101.732 173.257 101.497C173.257 101.073 173.093 100.667 172.802 100.367C172.51 100.067 172.115 99.8984 171.703 99.8984Z" fill="#C0BDBD"/>
<path d="M178.919 99.9004C178.801 99.9006 178.682 99.9149 178.566 99.9431C178.905 100.027 179.207 100.226 179.423 100.508C179.638 100.79 179.755 101.138 179.755 101.497C179.755 101.856 179.638 102.204 179.423 102.486C179.207 102.768 178.905 102.967 178.566 103.051C178.78 103.102 179.001 103.105 179.215 103.062C179.43 103.019 179.633 102.929 179.812 102.799C179.99 102.669 180.14 102.502 180.252 102.309C180.363 102.115 180.434 101.9 180.459 101.676C180.484 101.453 180.463 101.226 180.397 101.012C180.331 100.797 180.222 100.599 180.076 100.431C179.931 100.263 179.753 100.128 179.554 100.036C179.354 99.9433 179.138 99.8952 178.919 99.8945V99.9004Z" fill="#C0BDBD"/>
<path d="M170.714 101.693C170.826 101.693 170.917 101.599 170.917 101.483C170.917 101.367 170.826 101.273 170.714 101.273C170.601 101.273 170.51 101.367 170.51 101.483C170.51 101.599 170.601 101.693 170.714 101.693Z" fill="#C0BDBD"/>
<path d="M171.856 101.693C171.969 101.693 172.06 101.599 172.06 101.483C172.06 101.367 171.969 101.273 171.856 101.273C171.744 101.273 171.652 101.367 171.652 101.483C171.652 101.599 171.744 101.693 171.856 101.693Z" fill="#C0BDBD"/>
<path d="M178.153 101.693C178.266 101.693 178.357 101.599 178.357 101.483C178.357 101.367 178.266 101.273 178.153 101.273C178.04 101.273 177.949 101.367 177.949 101.483C177.949 101.599 178.04 101.693 178.153 101.693Z" fill="#C0BDBD"/>
<path d="M179.294 101.693C179.406 101.693 179.497 101.599 179.497 101.483C179.497 101.367 179.406 101.273 179.294 101.273C179.181 101.273 179.09 101.367 179.09 101.483C179.09 101.599 179.181 101.693 179.294 101.693Z" fill="#C0BDBD"/>
<path d="M55.8613 33.916V92.2073" stroke="#E1BC78" stroke-width="0.96" stroke-miterlimit="10"/>
<path d="M69.1152 15.002V110.448" stroke="#E1BC78" stroke-width="0.96" stroke-miterlimit="10"/>
<path d="M12.4746 43.6348V119.771" stroke="#E1BC78" stroke-width="0.96" stroke-miterlimit="10"/>
<path d="M84.9102 17.6035V101.138" stroke="#E1BC78" stroke-width="0.96" stroke-miterlimit="10"/>
<path d="M100.021 4.94141L100.027 92.3181" stroke="#E1BC78" stroke-width="0.96" stroke-miterlimit="10"/>
<path d="M121.543 9.43164V92.2664" stroke="#E1BC78" stroke-width="0.96" stroke-miterlimit="10"/>
<path d="M136.477 6.14258V88.4606" stroke="#E1BC78" stroke-width="0.96" stroke-miterlimit="10"/>
<path d="M148.535 20.4551V107.552" stroke="#E1BC78" stroke-width="0.96" stroke-miterlimit="10"/>
<path d="M161.17 51.3047V102.95" stroke="#E1BC78" stroke-width="0.96" stroke-miterlimit="10"/>
<path d="M161.17 0.994141V33.0654" stroke="#E1BC78" stroke-width="0.96" stroke-miterlimit="10"/>
<path d="M176.969 107.891V126.896" stroke="#E1BC78" stroke-width="0.96" stroke-miterlimit="10"/>
<path d="M174.607 10.2227V94.9379" stroke="#E1BC78" stroke-width="0.96" stroke-miterlimit="10"/>
<path d="M189.857 40.0527V117.094" stroke="#E1BC78" stroke-width="0.96" stroke-miterlimit="10"/>
<path d="M206.383 78.5254V128.687" stroke="#E1BC78" stroke-width="0.96" stroke-miterlimit="10"/>
<g style="mix-blend-mode:multiply">
<path d="M132.256 60.8674L90.5391 62.3613L90.8581 2.57617L132.256 60.8674Z" fill="#F9F3E3"/>
</g>
<path d="M90.8574 2.57511V62.1738L132.255 60.8664V2.01562L90.8574 2.57511Z" fill="white"/>
<path d="M102.025 19.4391L118.232 6.6875L121.09 28.826L102.025 19.4391Z" fill="#E8433F"/>
<path d="M94.1719 44.8006L123.768 7.80859" stroke="#4A368C" stroke-width="5" stroke-miterlimit="10"/>
<path d="M117.639 41.9025L117.775 53.2068L128.714 52.7872V41.5762L117.639 41.9025Z" fill="white"/>
<path d="M100.731 40.4535C102.949 40.4535 104.748 38.6026 104.748 36.3195C104.748 34.0364 102.949 32.1855 100.731 32.1855C98.5116 32.1855 96.7129 34.0364 96.7129 36.3195C96.7129 38.6026 98.5116 40.4535 100.731 40.4535Z" fill="#EF7D00"/>
<path d="M112.579 53.604C113.82 53.604 114.825 52.569 114.825 51.2922C114.825 50.0155 113.82 48.9805 112.579 48.9805C111.338 48.9805 110.332 50.0155 110.332 51.2922C110.332 52.569 111.338 53.604 112.579 53.604Z" fill="#D74C46"/>
<path d="M125.924 14.6724C127.165 14.6724 128.171 13.6373 128.171 12.3606C128.171 11.0838 127.165 10.0488 125.924 10.0488C124.684 10.0488 123.678 11.0838 123.678 12.3606C123.678 13.6373 124.684 14.6724 125.924 14.6724Z" fill="#009239"/>
<path d="M107.971 9.86523L115.13 53.2097" stroke="#FED100" stroke-width="2.89" stroke-miterlimit="10"/>
<mask id="mask0" mask-type="alpha" maskUnits="userSpaceOnUse" x="0" y="0" width="224" height="146">
<path d="M39.7774 144.961C39.7774 144.961 -21.8522 109.791 8.96167 49.0673C39.7755 -11.6562 101.452 28.2401 118.374 17.7906C135.296 7.34103 142.325 -2.04782 162.784 0.97495C183.242 3.99772 192.84 30.107 195.621 48.2417C198.402 66.3763 198.642 71.5982 203.704 75.1707C208.766 78.7433 225.982 98.03 222.901 119.409C219.907 140.195 207.997 145.246 207.997 145.246L39.7774 144.961Z" fill="#F9F3E3"/>
</mask>
<g mask="url(#mask0)">
<path d="M-2.76367 115.445L36.4272 146.403H209.367L226.357 129.248L-2.76367 115.445Z" fill="#E0A337"/>
<path d="M12.9183 130.511L-2.69727 115.471H186.047L226.231 129.31L12.9183 130.511Z" fill="#D3943E"/>
</g>
<g style="mix-blend-mode:multiply">
<path d="M166.966 121.538C166.966 121.538 114.356 126.372 110.68 124.013C108.662 122.72 97.1864 117.502 97.1864 117.502C97.1864 117.502 95.8365 117.222 100.149 117.222C104.461 117.222 106.911 116.954 110.408 117.14C113.905 117.327 166.785 121.437 166.785 121.437L166.966 121.538Z" fill="#F9F3E3"/>
</g>
<path d="M136.985 115.549L105.456 115.867C105.216 115.776 104.918 115.988 104.791 116.343C104.665 116.699 104.756 117.056 104.995 117.148L120.267 122.958C120.328 122.981 125.565 122.789 125.565 122.789C125.565 122.789 146.522 119.846 147.148 119.846C147.775 119.846 136.985 115.549 136.985 115.549Z" fill="#DEEAF8"/>
<g style="mix-blend-mode:multiply">
<path d="M117.474 115.754L105.391 115.876C105.151 115.785 104.853 115.997 104.726 116.352C104.726 116.352 104.726 116.37 104.717 116.379C108.48 117.669 119.537 121.358 121.847 120.952C124.637 120.463 144.655 119.272 144.655 119.272C144.655 119.272 129.604 116.756 117.474 115.754Z" fill="#DEEAF8"/>
</g>
<g style="mix-blend-mode:multiply">
<path d="M112.452 117.309C112.452 117.309 119.464 119.516 120.656 119.516C121.847 119.516 134.138 118.885 134.138 118.885L131.381 116.678C131.381 116.678 111.157 116.81 112.452 117.309Z" fill="#DEEAF8"/>
</g>
<g style="mix-blend-mode:multiply">
<path d="M122.543 115.693L105.46 115.866C105.22 115.775 104.922 115.987 104.796 116.342C104.682 116.657 104.743 116.978 104.928 117.108C104.928 116.948 104.952 116.354 105.777 116.354C106.721 116.354 122.29 116.774 122.29 116.774L122.543 115.693Z" fill="#DEEAF8"/>
</g>
<path d="M113.27 117.476L124.998 116.916" stroke="#DEEAF8" stroke-width="0.36" stroke-miterlimit="10" stroke-linecap="round"/>
<path d="M114.697 117.792L126.425 117.232" stroke="#DEEAF8" stroke-width="0.36" stroke-miterlimit="10" stroke-linecap="round"/>
<path d="M115.82 118.159L127.549 117.598" stroke="#DEEAF8" stroke-width="0.36" stroke-miterlimit="10" stroke-linecap="round"/>
<path d="M117.305 118.509L129.033 117.947" stroke="#DEEAF8" stroke-width="0.36" stroke-miterlimit="10" stroke-linecap="round"/>
<path d="M119.09 118.859L130.82 118.299" stroke="#DEEAF8" stroke-width="0.36" stroke-miterlimit="10" stroke-linecap="round"/>
<path d="M114.816 117.16L121.321 118.823" stroke="#DEEAF8" stroke-width="0.36" stroke-miterlimit="10" stroke-linecap="round"/>
<path d="M116.197 117.09L120.436 118.193" stroke="#DEEAF8" stroke-width="0.36" stroke-miterlimit="10" stroke-linecap="round"/>
<path d="M118.631 117.213L122.869 118.317" stroke="#DEEAF8" stroke-width="0.36" stroke-miterlimit="10" stroke-linecap="round"/>
<path d="M107.582 85.1758C107.582 85.1758 93.8625 85.912 92.7051 97.4028C91.5478 108.894 95.0878 112.324 95.0878 112.324C95.0878 112.324 95.4654 112.653 96.5868 112.418L95.2917 110.036C95.2917 110.036 98.4692 105.226 104.382 106.114C104.393 106.332 104.377 106.551 104.337 106.766C104.269 107.188 104.824 116.109 104.824 116.109H147.245C147.245 116.109 134.194 85.9354 116.741 85.4924L107.582 85.1758Z" fill="#009239"/>
<path d="M112.314 90.7823C116.909 90.7823 117.364 87.1534 117.363 85.5235C117.155 85.5099 116.949 85.4963 116.741 85.4924L107.583 85.1758C107.583 85.1758 107.36 85.1894 106.973 85.2321C106.922 86.5531 107.264 90.7823 112.314 90.7823Z" fill="white"/>
<path d="M96.5865 112.418L95.2913 110.036C95.2913 110.036 98.465 105.232 104.371 106.112L104.008 105.04C104.008 105.04 96.628 103.542 93.9414 110.438C94.538 111.798 95.0874 112.325 95.0874 112.325C95.0874 112.325 95.4745 112.645 96.5865 112.418Z" fill="white"/>
<g style="mix-blend-mode:multiply">
<path d="M104.37 106.113C104.37 106.113 102.757 101.96 103.109 100.273C103.109 100.273 104.696 106.474 105.616 107.7C106.535 108.926 104.46 107.817 104.37 106.113Z" fill="#288B4C"/>
</g>
<g style="mix-blend-mode:multiply">
<path d="M126.097 104.856C126.097 104.856 125.531 100.419 124.441 99.1211C124.441 99.1211 125.991 105.338 125.763 106.863C125.535 108.388 126.826 106.391 126.097 104.856Z" fill="#288B4C"/>
</g>
<path d="M108.228 84.1615L107.581 85.1775C107.581 85.1775 107.12 90.3897 113.039 89.9176C118.202 89.496 116.347 84.0488 116.347 84.0488C116.347 84.0488 108.228 84.3033 108.228 84.1615Z" fill="#F9CFD2"/>
<g style="mix-blend-mode:multiply">
<path d="M95.0865 112.326C95.0865 112.326 95.4641 112.654 96.5856 112.419L95.2904 110.037C94.9808 110.534 94.8184 111.455 94.9506 112.174C94.9931 112.227 95.0384 112.278 95.0865 112.326Z" fill="#288B4C"/>
</g>
<g style="mix-blend-mode:multiply">
<path d="M95.0865 112.326C95.0865 112.326 95.4641 112.654 96.5856 112.419L95.2904 110.037C94.9808 110.534 94.8184 111.455 94.9506 112.174C94.9931 112.227 95.0384 112.278 95.0865 112.326Z" fill="#288B4C"/>
</g>
<path d="M116.409 84.2431L115.906 84.0488C114.219 84.1013 108.23 84.2781 108.23 84.1576L107.582 85.1736C107.582 85.1736 107.137 90.2575 112.835 89.9137C110.614 89.6534 108.574 88.004 111.543 88.1653C114.564 88.3401 116.229 84.7404 116.426 84.28L116.409 84.2431Z" fill="#F6ADA0"/>
<path d="M112.393 85.2202C117.859 85.2202 122.29 80.1704 122.29 73.9412C122.29 67.7119 117.859 62.6621 112.393 62.6621C106.927 62.6621 102.496 67.7119 102.496 73.9412C102.496 80.1704 106.927 85.2202 112.393 85.2202Z" fill="#F9CFD2"/>
<path d="M111.737 63.6699C111.737 63.6699 107.413 71.2715 103.192 72.7421C102.984 72.6387 102.749 72.606 102.521 72.6489L102.68 71.8718L111.737 63.6699Z" fill="#F6ADA0"/>
<path d="M111.734 63.6705C111.734 63.6705 104.482 73.9666 100.533 72.0064C96.5829 70.0463 106.695 54.2467 110.407 59.3967C110.407 59.3967 115.274 54.1068 122.084 61.7084C128.894 69.31 123.687 81.3254 111.734 63.6705Z" fill="#EF7D00"/>
<path d="M102.693 77.4001C103.827 77.4001 104.747 76.3338 104.747 75.0184C104.747 73.703 103.827 72.6367 102.693 72.6367C101.558 72.6367 100.639 73.703 100.639 75.0184C100.639 76.3338 101.558 77.4001 102.693 77.4001Z" fill="#F9CFD2"/>
<path d="M122.234 77.4001C123.368 77.4001 124.288 76.3338 124.288 75.0184C124.288 73.703 123.368 72.6367 122.234 72.6367C121.099 72.6367 120.18 73.703 120.18 75.0184C120.18 76.3338 121.099 77.4001 122.234 77.4001Z" fill="#F9CFD2"/>
<path d="M95.291 110.037C95.291 110.037 96.4238 116.254 105.324 116.254H132.014L125.342 110.232C125.342 110.232 110.861 111.026 107.684 109.066C104.506 107.106 104.37 106.125 104.37 106.125C104.37 106.125 98.8782 104.712 95.291 110.037Z" fill="#F9CFD2"/>
<path d="M111.301 81.1048C111.301 81.1048 114.943 83.3002 116.06 79.1406C116.06 79.1406 114.373 81.064 111.301 81.1048Z" fill="#F6ADA0"/>
<path d="M102.758 74.0039C102.758 74.0039 101.737 74.0738 101.965 75.2182C102.193 76.3625 103.145 75.9429 103.145 75.9429" stroke="#F6ADA0" stroke-width="1.44" stroke-miterlimit="10" stroke-linecap="round"/>
<path d="M122.303 74.0737C122.371 74.0737 123.301 73.7473 123.166 75.0451C123.03 76.3429 122.461 76.0165 122.461 76.0165" stroke="#F6ADA0" stroke-width="1.44" stroke-miterlimit="10" stroke-linecap="round"/>
<path d="M109.215 74.6789C109.558 74.6789 109.836 74.3162 109.836 73.8688C109.836 73.4213 109.558 73.0586 109.215 73.0586C108.872 73.0586 108.594 73.4213 108.594 73.8688C108.594 74.3162 108.872 74.6789 109.215 74.6789Z" fill="#4A368C"/>
<path d="M116.264 74.449C116.597 74.449 116.867 74.1071 116.867 73.6854C116.867 73.2637 116.597 72.9219 116.264 72.9219C115.932 72.9219 115.662 73.2637 115.662 73.6854C115.662 74.1071 115.932 74.449 116.264 74.449Z" fill="#4A368C"/>
<path d="M112.791 73.0684C112.791 73.0684 112.74 75.5744 112.383 76.3087C112.027 77.043 112.127 77.4743 113.029 77.5345" stroke="#F6ADA0" stroke-miterlimit="10" stroke-linecap="round"/>
<g style="mix-blend-mode:multiply" opacity="0.5">
<path d="M113.472 62.609C112.655 60.2486 112.785 58.8635 113.17 57.8203C112.134 58.0967 111.184 58.6395 110.408 59.3977C106.696 54.2478 96.5861 70.0454 100.534 72.0075C104.482 73.9696 111.735 63.6716 111.735 63.6716C115.377 69.0508 118.39 71.6714 120.632 72.5068C117.362 69.8842 114.673 66.0766 113.472 62.609Z" fill="#EF7D00"/>
</g>
<path d="M121.109 76.9922V77.0388C121.267 77.3192 121.465 77.5734 121.697 77.7927C121.744 77.6431 121.787 77.4935 121.831 77.3419C121.423 77.1671 121.109 76.9922 121.109 76.9922Z" fill="#F6ADA0"/>
<path d="M103.125 77.8997C103.357 77.643 103.537 77.342 103.656 77.0137C103.462 77.1969 103.223 77.3213 102.965 77.3731C103.016 77.55 103.069 77.7268 103.125 77.8997Z" fill="#F6ADA0"/>
<path d="M95.291 110.038C95.501 110.9 95.8765 111.709 96.3955 112.418C96.3959 112.411 96.3959 112.404 96.3955 112.397C97.3395 106.349 104.385 106.209 104.385 106.209L104.37 106.147V106.116C104.37 106.116 98.8782 104.714 95.291 110.038Z" fill="#F6ADA0"/>
<path d="M107.186 70.9338L107.217 70.9163L107.309 70.8657C107.394 70.8211 107.511 70.7666 107.653 70.7045C107.794 70.6423 107.962 70.5821 108.144 70.5102C108.325 70.4383 108.521 70.3878 108.727 70.3508L109.031 70.2887C109.129 70.2685 109.228 70.2549 109.327 70.2479L109.609 70.2226L109.741 70.2109H109.864L110.392 70.2284C110.498 70.232 110.598 70.2787 110.67 70.3581C110.742 70.4376 110.781 70.5433 110.777 70.652C110.774 70.7607 110.728 70.8636 110.651 70.9379C110.574 71.0123 110.471 71.052 110.366 71.0484H110.336H110.285L109.843 70.9979L109.739 70.9843H109.626H109.38C109.293 70.9815 109.205 70.9854 109.118 70.9959L108.848 71.029C108.659 71.0465 108.485 71.0989 108.315 71.1281C108.145 71.1572 107.989 71.2155 107.858 71.2621C107.728 71.3088 107.619 71.3476 107.549 71.3787C107.52 71.389 107.491 71.4013 107.464 71.4156L107.432 71.4292C107.367 71.4622 107.292 71.4674 107.224 71.4437C107.156 71.4201 107.099 71.3694 107.067 71.3029C107.035 71.2365 107.03 71.1596 107.053 71.0893C107.076 71.0189 107.126 70.9609 107.19 70.9279L107.186 70.9338Z" fill="#EB5D53"/>
<path d="M114.895 70.2773H114.933H115.041C115.131 70.2773 115.256 70.2773 115.407 70.2773C115.558 70.2773 115.73 70.3006 115.915 70.3259C116.106 70.3527 116.295 70.3897 116.481 70.4366C116.674 70.4847 116.863 70.5458 117.048 70.6192C117.137 70.6542 117.222 70.6872 117.301 70.728C117.38 70.7688 117.454 70.8019 117.52 70.8427L117.709 70.9495L117.841 71.0447L117.956 71.1283C118.011 71.1703 118.049 71.2321 118.061 71.3014C118.074 71.3707 118.06 71.4423 118.024 71.502C117.987 71.5616 117.93 71.6049 117.864 71.6232C117.798 71.6414 117.728 71.6333 117.667 71.6004L117.641 71.5848L117.541 71.5266L117.424 71.4586L117.267 71.3828C117.21 71.3536 117.142 71.3323 117.078 71.3051C117.006 71.2771 116.932 71.2531 116.857 71.2332C116.695 71.1841 116.53 71.1471 116.362 71.1224C116.194 71.0954 116.023 71.0785 115.853 71.0719C115.69 71.0719 115.536 71.0719 115.405 71.0719C115.275 71.0719 115.167 71.0855 115.094 71.0952H115.014H114.984C114.878 71.1107 114.769 71.0819 114.683 71.0152C114.597 70.9486 114.54 70.8495 114.525 70.7397C114.51 70.6299 114.538 70.5185 114.603 70.43C114.668 70.3415 114.764 70.283 114.871 70.2676L114.895 70.2773Z" fill="#EB5D53"/>
<path d="M106.969 79.2797C107.628 79.2797 108.162 78.73 108.162 78.052C108.162 77.3739 107.628 76.8242 106.969 76.8242C106.31 76.8242 105.775 77.3739 105.775 78.052C105.775 78.73 106.31 79.2797 106.969 79.2797Z" fill="#F6ADA0"/>
<path d="M118.555 79.2797C119.214 79.2797 119.748 78.73 119.748 78.052C119.748 77.3739 119.214 76.8242 118.555 76.8242C117.896 76.8242 117.361 77.3739 117.361 78.052C117.361 78.73 117.896 79.2797 118.555 79.2797Z" fill="#F6ADA0"/>
<g opacity="0.7">
<g style="mix-blend-mode:multiply" opacity="0.7">
<path d="M103.148 100.67C103.148 100.67 101.679 90.2495 96.3281 89.791" stroke="#288B4C" stroke-width="1.08" stroke-miterlimit="10"/>
</g>
<g style="mix-blend-mode:multiply" opacity="0.7">
<path d="M124.575 99.2995C124.575 99.2995 120.88 90.781 122.594 86.7422" stroke="#288B4C" stroke-width="1.08" stroke-miterlimit="10"/>
</g>
<g style="mix-blend-mode:multiply" opacity="0.7">
<path d="M96.9863 89.8979C96.9863 89.8979 101.533 86.1855 106.966 85.8184" stroke="#288B4C" stroke-width="1.08" stroke-miterlimit="10"/>
</g>
<g style="mix-blend-mode:multiply" opacity="0.7">
<path d="M117.361 85.9844C117.361 85.9844 121.02 86.3555 122.404 87.2803" stroke="#288B4C" stroke-width="1.08" stroke-miterlimit="10"/>
</g>
<g style="mix-blend-mode:multiply" opacity="0.7">
<path d="M93.3184 108.697C93.3184 108.697 95.8785 102.43 103.702 103.907" stroke="#288B4C" stroke-width="1.08" stroke-miterlimit="10"/>
</g>
</g>
<path d="M163.483 117.723C162.931 121.004 161.566 121.733 160.45 121.733L122.73 123.395C121.615 123.395 120.888 122.23 121.105 120.79L127.335 89.1581C127.552 87.7206 128.976 86.6074 130.092 86.6074H166.673C167.789 86.6074 168.518 87.773 168.301 89.2106L163.483 117.723Z" fill="#DAE9F9"/>
<g style="mix-blend-mode:multiply">
<path d="M121.488 120.973L127.719 89.3408C127.936 87.9032 129.359 86.7881 130.473 86.7881H167.057C167.203 86.7888 167.349 86.811 167.489 86.8542C167.246 86.6913 166.962 86.6055 166.672 86.6075H130.092C128.976 86.6075 127.553 87.7206 127.335 89.1582L121.105 120.79C120.916 122.032 121.435 123.069 122.298 123.329C121.673 122.914 121.332 122.016 121.488 120.973Z" fill="#DEEAF8"/>
</g>
<g style="mix-blend-mode:multiply" opacity="0.7">
<g style="mix-blend-mode:multiply" opacity="0.7">
<path d="M149.46 107.073C149.46 107.073 149.357 108.884 147.688 109.348C147.488 109.368 147.288 109.316 147.121 109.2C146.887 109.006 146.464 109.086 146.243 109.222C146.092 109.306 145.921 109.347 145.748 109.341C145.576 109.334 145.409 109.281 145.263 109.185C144.913 108.901 144.653 108.515 144.52 108.078C144.52 108.078 145.841 108.111 145.992 106.834C146.143 105.558 145.203 105.634 145.203 105.634C145.646 105.207 145.96 104.658 146.107 104.052C146.296 103.116 146.787 102.483 147.308 102.788C147.829 103.093 147.686 102.687 148.135 102.71C148.584 102.733 148.783 103.159 148.752 103.693C148.722 104.227 148.728 104.958 149.121 105.504C149.423 105.964 149.544 106.525 149.46 107.073Z" fill="#E6ECF8"/>
</g>
<g style="mix-blend-mode:multiply" opacity="0.7">
<path d="M147.666 102.591C147.666 102.591 147.864 101.284 146.65 100.973C146.654 100.973 146.205 102.461 147.666 102.591Z" fill="#E6ECF8"/>
</g>
</g>
<g style="mix-blend-mode:multiply" opacity="0.5">
<path d="M163.148 119.124C136.951 115.462 131.542 96.3829 130.509 86.6172H130.092C128.976 86.6172 127.552 87.7303 127.335 89.1679L121.105 120.8C120.888 122.238 121.615 123.405 122.73 123.405L160.45 121.742C161.385 121.736 162.495 121.224 163.148 119.124Z" fill="#DEEAF8"/>
</g>
<path d="M68.0606 106.081L70.33 115.608H45.2726L25.209 104.771L68.0606 106.081Z" fill="#F6A300"/>
<g style="mix-blend-mode:multiply" opacity="0.5">
<path d="M68.7688 109.063L68.057 106.079L59.5894 105.82C51.6806 108.954 37.9719 111.151 39.7655 112.633L40.2054 112.87C40.9795 113.177 42.6277 112.148 45.1916 112.524C59.495 114.624 66.2615 111.042 68.7688 109.063Z" fill="#F6A300"/>
</g>
<path d="M48.9936 3.60352C48.9936 3.60352 40.0974 4.16494 34.0143 15.9355C27.9312 27.706 26.7512 27.9799 22.575 34.2431C18.3988 40.5062 11.4094 56.195 19.035 64.698C26.6606 73.201 61.9773 53.3005 60.0629 48.0689C58.1485 42.8373 55.6148 37.8875 56.8854 25.4623C58.156 13.037 48.9936 3.60352 48.9936 3.60352Z" fill="#FDC000"/>
<g style="mix-blend-mode:multiply" opacity="0.5">
<path d="M40.3077 15.8307C40.3077 15.8307 39.0654 14.2999 41.2895 10.5176C41.2895 10.5176 37.7382 15.7122 37.7382 19.2867C37.7382 22.8612 36.2051 24.3376 34.538 26.5367C32.8709 28.7358 22.3152 43.2824 25.8533 51.8301C29.3914 60.3778 50.3688 54.5614 50.3688 54.5614L49.6797 31.7217L40.3077 15.8307Z" fill="#F6A300"/>
</g>
<path d="M37.4639 42.791C37.4639 42.791 21.214 50.5927 18.1272 66.8469C15.0403 83.1011 12.3178 104.585 27.0233 105.333C41.7289 106.081 49.1751 111.87 49.1751 111.87C49.1751 111.87 58.9813 113.867 66.6409 107.351C66.6409 107.351 69.3313 105.284 68.5817 104.653C67.8322 104.022 67.2885 103.777 67.3904 102.938C67.4924 102.098 67.2884 102.549 67.1506 101.465C67.0128 100.381 66.5389 90.3258 66.5389 90.3258L66.6409 80.2726L74.9782 75.1537C74.9782 75.1537 72.6296 47.1989 52.7132 44.2655L37.4639 42.791Z" fill="#E04C48"/>
<g style="mix-blend-mode:multiply" opacity="0.5">
<path d="M52.7164 44.2635L37.4634 42.791C37.4634 42.791 36.8252 43.098 35.7793 43.7157C36.8838 44.9415 40.3275 48.1508 46.1122 48.1508C50.8473 48.1508 53.7624 46.1654 55.1746 44.7531C54.3986 44.5802 53.5641 44.3432 52.7164 44.2635Z" fill="#EB5954"/>
</g>
<path d="M44.1365 30.8105C44.1365 30.8105 42.2183 37.4253 37.4512 42.7792C37.657 42.853 43.5909 49.5222 52.6476 44.2401L51.7621 31.6129L44.1365 30.8105Z" fill="#F9CFD2"/>
<g style="mix-blend-mode:multiply" opacity="0.5">
<path d="M43.2331 91.5447C43.507 91.3871 43.4176 90.6862 43.0334 89.9791C42.6492 89.272 42.1157 88.8266 41.8417 88.9842C41.5678 89.1418 41.6572 89.8427 42.0414 90.5498C42.4256 91.2569 42.9591 91.7023 43.2331 91.5447Z" fill="#EB5954"/>
</g>
<g style="mix-blend-mode:multiply" opacity="0.5">
<path d="M49.4069 69.3143C49.6809 69.1567 49.5915 68.4557 49.2073 67.7486C48.8231 67.0415 48.2895 66.5961 48.0156 66.7537C47.7416 66.9113 47.831 67.6123 48.2152 68.3193C48.5994 69.0264 49.133 69.4719 49.4069 69.3143Z" fill="#EB5954"/>
</g>
<g style="mix-blend-mode:multiply" opacity="0.5">
<path d="M67.7253 74.3807C67.9992 74.2231 67.9098 73.5221 67.5256 72.815C67.1414 72.1079 66.6079 71.6625 66.3339 71.8201C66.06 71.9777 66.1494 72.6787 66.5336 73.3858C66.9178 74.0928 67.4513 74.5383 67.7253 74.3807Z" fill="#EB5954"/>
</g>
<g style="mix-blend-mode:multiply" opacity="0.5">
<path d="M47.4987 54.9275C47.7727 54.7699 47.6833 54.069 47.2991 53.3619C46.9149 52.6548 46.3813 52.2094 46.1074 52.367C45.8334 52.5246 45.9228 53.2255 46.307 53.9326C46.6912 54.6397 47.2248 55.0851 47.4987 54.9275Z" fill="#EB5954"/>
</g>
<g style="mix-blend-mode:multiply" opacity="0.5">
<path d="M23.3503 87.949C23.6242 87.7914 23.5348 87.0905 23.1506 86.3834C22.7664 85.6763 22.2329 85.2309 21.9589 85.3885C21.685 85.5461 21.7744 86.247 22.1586 86.9541C22.5428 87.6612 23.0763 88.1066 23.3503 87.949Z" fill="#EB5954"/>
</g>
<g style="mix-blend-mode:multiply" opacity="0.5">
<path d="M35.1061 62.6326C35.3801 62.475 35.2907 61.7741 34.9065 61.067C34.5223 60.3599 33.9887 59.9145 33.7148 60.0721C33.4408 60.2297 33.5302 60.9306 33.9144 61.6377C34.2986 62.3448 34.8322 62.7902 35.1061 62.6326Z" fill="#EB5954"/>
</g>
<g style="mix-blend-mode:multiply" opacity="0.5">
<path d="M61.4323 52.5428C61.7063 52.3852 61.6169 51.6842 61.2327 50.9771C60.8484 50.27 60.3149 49.8246 60.041 49.9822C59.767 50.1398 59.8564 50.8408 60.2406 51.5479C60.6248 52.255 61.1584 52.7004 61.4323 52.5428Z" fill="#EB5954"/>
</g>
<g style="mix-blend-mode:multiply" opacity="0.5">
<path d="M34.5378 49.6209C34.8117 49.4633 34.7223 48.7623 34.3381 48.0553C33.9539 47.3482 33.4204 46.9027 33.1464 47.0603C32.8725 47.2179 32.9619 47.9189 33.3461 48.626C33.7303 49.3331 34.2638 49.7785 34.5378 49.6209Z" fill="#EB5954"/>
</g>
<g style="mix-blend-mode:multiply" opacity="0.5">
<path d="M18.021 67.4062C17.9216 67.9373 17.8228 68.4735 17.7246 69.0149C18.0418 69.4035 18.3797 69.6192 18.5799 69.5045C18.8536 69.3472 18.7687 68.6458 18.3797 67.9386C18.2771 67.7497 18.1569 67.5714 18.021 67.4062Z" fill="#EB5954"/>
</g>
<g style="mix-blend-mode:multiply" opacity="0.5">
<path d="M66.5425 87.7086L66.6086 81.2337L62.3965 66.6113L66.5425 87.7086Z" fill="#EB5954"/>
</g>
<path d="M51.7563 31.607L44.1307 30.8105C44.1307 30.8105 42.2125 37.4253 37.4453 42.7792C37.5605 42.82 39.4692 44.889 42.7015 45.8078C41.3195 44.7491 44.5083 35.8595 47.5687 36.0654C48.388 36.1243 49.2094 35.9889 49.9698 35.6696C50.7302 35.3503 51.4092 34.8556 51.9545 34.2238L51.7563 31.607Z" fill="#F6ADA0"/>
<path d="M59.0527 20.1525C59.9232 12.6407 56.3743 6.02918 51.126 5.38524C45.8777 4.7413 40.9174 10.3088 40.0469 17.8206C39.1764 25.3324 42.7253 31.9439 47.9736 32.5878C53.2219 33.2318 58.1822 27.6643 59.0527 20.1525Z" fill="#F9CFD2"/>
<path d="M45.7326 16.8416C45.7326 16.8416 45.9214 16.7289 46.199 16.5832C46.5505 16.4026 46.9139 16.2474 47.2864 16.1188C47.4917 16.0491 47.7003 15.9901 47.9114 15.942C48.0152 15.9226 48.1153 15.9012 48.2134 15.8876C48.3116 15.874 48.4022 15.8624 48.4929 15.8546H48.7364C48.7993 15.8505 48.8623 15.8505 48.9252 15.8546L49.097 15.8663C49.169 15.8714 49.2394 15.891 49.304 15.9241C49.3687 15.9572 49.4264 16.003 49.4738 16.059C49.5212 16.1151 49.5574 16.1801 49.5804 16.2506C49.6034 16.321 49.6127 16.3954 49.6077 16.4695C49.6028 16.5436 49.5837 16.616 49.5515 16.6825C49.5194 16.7491 49.4748 16.8084 49.4204 16.8572C49.3659 16.906 49.3027 16.9433 49.2343 16.967C49.1658 16.9906 49.0935 17.0002 49.0215 16.9951C48.982 16.9909 48.9429 16.9838 48.9044 16.9737L48.8705 16.962L48.7647 16.929C48.7232 16.9151 48.681 16.9035 48.6382 16.894L48.4627 16.8591L48.2474 16.8338C48.1681 16.8338 48.0832 16.8338 47.9963 16.8202C47.8188 16.8202 47.6282 16.8202 47.4299 16.8455C47.0673 16.8847 46.7077 16.9496 46.3538 17.0397C46.0593 17.1136 45.8723 17.1777 45.8723 17.1777C45.8327 17.1823 45.7927 17.174 45.758 17.1538C45.7233 17.1336 45.6957 17.1027 45.6792 17.0654C45.6626 17.028 45.658 16.9863 45.6659 16.9461C45.6738 16.9059 45.6938 16.8693 45.7232 16.8416H45.7326Z" fill="#F6A300"/>
<g style="mix-blend-mode:multiply" opacity="0.5">
<path d="M51.2624 10.9141C51.2624 10.9141 46.6217 18.9353 42.4115 17.6745C42.4115 17.6745 40.8463 16.8333 40.3064 15.8309C39.672 14.6653 51.2624 10.9141 51.2624 10.9141Z" fill="#F6ADA0"/>
</g>
<path d="M42.5976 18.9045C42.7398 17.0763 41.6919 15.4985 40.2571 15.3804C38.8224 15.2623 37.544 16.6486 37.4019 18.4768C37.2598 20.305 38.3076 21.8829 39.7424 22.001C41.1772 22.1191 42.4555 20.7327 42.5976 18.9045Z" fill="#F9CFD2"/>
<path d="M72.0565 68.4338L85.0383 66.7515L89.5883 57.994L92.9357 57.9707L94.5707 67.7792L83.7677 88.0507L65.4429 90.3547L62.8809 88.515L72.0565 68.4338Z" fill="white"/>
<path d="M94.5862 67.6699L73.6276 70.3663L65.043 90.3873L65.3658 90.6379L83.7963 88.0212L94.6221 67.8486L94.5862 67.6699Z" fill="#5D58A2"/>
<path d="M42.4348 17.6175C42.1082 16.4712 41.2926 15.9195 40.2617 15.832C40.5053 17.1396 42.3555 17.6641 42.3555 17.6641C42.482 17.7263 42.3158 17.5767 42.4348 17.6175Z" fill="#F6ADA0"/>
<path d="M40.0499 15.6054C40.0499 15.6054 43.318 21.4217 51.2155 10.912C51.2155 10.912 55.2331 19.7394 59.7964 17.7773C64.3597 15.8152 60.7498 3.27344 50.0563 3.27344C39.3627 3.27344 40.0499 15.6054 40.0499 15.6054Z" fill="#FDC000"/>
<path d="M56.2884 18.041L56.1903 17.9477L56.077 17.8409C56.0317 17.7942 55.9958 17.767 55.9467 17.7243C55.8976 17.6815 55.8504 17.6369 55.7862 17.5922C55.722 17.5475 55.6616 17.497 55.5974 17.4503C55.5332 17.4037 55.4558 17.3551 55.3784 17.3124C55.301 17.2697 55.2255 17.2211 55.1443 17.1822C54.9849 17.1012 54.821 17.0298 54.6534 16.9685C54.5057 16.9147 54.3551 16.8699 54.2022 16.8345C54.0682 16.8014 53.9549 16.7859 53.8756 16.7742L53.7566 16.7606H53.7378C53.7152 16.7585 53.6932 16.7517 53.6732 16.7407C53.6531 16.7297 53.6354 16.7148 53.621 16.6967C53.6066 16.6787 53.5958 16.6578 53.5893 16.6355C53.5828 16.6131 53.5806 16.5896 53.583 16.5664C53.5866 16.527 53.6029 16.49 53.6292 16.4612C53.6555 16.4323 53.6904 16.4133 53.7283 16.407H53.7699L53.8756 16.3934C54.0009 16.3786 54.127 16.3708 54.2532 16.3701C54.429 16.3663 54.6049 16.3735 54.7799 16.3915C54.9831 16.4128 55.1848 16.4466 55.3841 16.4925C55.486 16.512 55.5861 16.5469 55.6881 16.5722C55.79 16.5974 55.8769 16.6382 55.9788 16.6693C56.0808 16.7004 56.1676 16.7432 56.245 16.7781C56.3224 16.8131 56.413 16.8558 56.4886 16.8928C56.5641 16.9297 56.6396 16.9705 56.6887 16.9996L56.8227 17.0754L56.9398 17.1434C57.0026 17.1795 57.058 17.228 57.1026 17.2861C57.1472 17.3442 57.1803 17.4108 57.2 17.482C57.2196 17.5533 57.2254 17.6278 57.217 17.7014C57.2087 17.775 57.1863 17.8461 57.1512 17.9108C57.1162 17.9755 57.069 18.0324 57.0126 18.0783C56.9561 18.1243 56.8914 18.1583 56.8222 18.1785C56.6823 18.2193 56.5324 18.2013 56.4055 18.1284C56.3632 18.1042 56.3239 18.0749 56.2884 18.041Z" fill="#F6A300"/>
<path d="M47.873 27.0449C47.873 27.0449 49.3211 30.4779 52.1852 28.0377C52.1852 28.0377 49.5836 27.6919 47.873 27.0449Z" fill="#F6ADA0"/>
<path d="M40.2558 17.9922C40.2558 17.9922 38.5868 18.202 39.0645 19.9176" stroke="#F6ADA0" stroke-width="1.44" stroke-miterlimit="10" stroke-linecap="round"/>
<path d="M47.7138 19.7573C48.1371 19.7573 48.4803 19.4041 48.4803 18.9685C48.4803 18.5328 48.1371 18.1797 47.7138 18.1797C47.2905 18.1797 46.9473 18.5328 46.9473 18.9685C46.9473 19.4041 47.2905 19.7573 47.7138 19.7573Z" fill="#4A368C"/>
<path d="M54.7725 20.1661C55.1625 20.1661 55.4786 19.8408 55.4786 19.4395C55.4786 19.0382 55.1625 18.7129 54.7725 18.7129C54.3825 18.7129 54.0664 19.0382 54.0664 19.4395C54.0664 19.8408 54.3825 20.1661 54.7725 20.1661Z" fill="#4A368C"/>
<path d="M51.5197 19.2773C51.5197 19.2773 51.6707 21.22 52.0955 22.1622C52.5203 23.1044 52.1672 24.0427 50.7305 24.2369" stroke="#F6ADA0" stroke-miterlimit="10" stroke-linecap="round"/>
<path d="M47.5578 32.5212C41.6522 31.002 40.7611 22.3223 40.7611 22.3223C40.5435 22.4299 40.3038 22.4819 40.0625 22.4738C40.7497 27.7073 43.6383 31.7946 47.5578 32.5212Z" fill="#F6ADA0"/>
<g style="mix-blend-mode:multiply" opacity="0.5">
<path d="M50.9464 6.95508C50.9464 6.95508 50.5141 8.18478 51.375 11.2289C51.9924 12.478 54.4185 17.0044 57.4279 17.898C56.0553 17.2492 52.134 15.0482 50.9464 6.95508Z" fill="#F6A300"/>
</g>
<g style="mix-blend-mode:multiply" opacity="0.5">
<path d="M30.8928 68.4336C30.8928 68.4336 28.5328 88.3303 31.3478 92.911L30.8928 68.4336Z" fill="#EB5954"/>
</g>
<g style="mix-blend-mode:multiply" opacity="0.5">
<path d="M63.7886 104.616C63.9378 103.82 63.809 103.126 63.5009 103.065C63.1927 103.003 62.8219 103.599 62.6726 104.394C62.5233 105.189 62.6522 105.884 62.9603 105.945C63.2685 106.006 63.6393 105.411 63.7886 104.616Z" fill="#EB5954"/>
</g>
<g style="mix-blend-mode:multiply" opacity="0.5">
<path d="M63.3844 86.8593C63.7101 86.1217 63.7426 85.4155 63.4569 85.2819C63.1711 85.1483 62.6754 85.6379 62.3496 86.3754C62.0239 87.113 61.9914 87.8193 62.2771 87.9529C62.5629 88.0865 63.0586 87.5969 63.3844 86.8593Z" fill="#EB5954"/>
</g>
<g style="mix-blend-mode:multiply" opacity="0.5">
<path d="M55.5601 98.3731C55.8859 97.6356 55.9183 96.9294 55.6325 96.7958C55.3468 96.6622 54.8511 97.1517 54.5254 97.8892C54.1996 98.6267 54.1672 99.3329 54.4529 99.4665C54.7387 99.6002 55.2344 99.1106 55.5601 98.3731Z" fill="#EB5954"/>
</g>
<g style="mix-blend-mode:multiply" opacity="0.5">
<path d="M42.5796 101.924C42.9054 101.186 42.9378 100.48 42.652 100.347C42.3663 100.213 41.8706 100.702 41.5449 101.44C41.2191 102.178 41.1867 102.884 41.4724 103.017C41.7582 103.151 42.2539 102.661 42.5796 101.924Z" fill="#EB5954"/>
</g>
<g style="mix-blend-mode:multiply" opacity="0.5">
<path d="M34.0445 100.141C34.3702 99.4031 34.4026 98.6969 34.1169 98.5633C33.8312 98.4297 33.3355 98.9193 33.0097 99.6568C32.684 100.394 32.6516 101.101 32.9373 101.234C33.223 101.368 33.7187 100.878 34.0445 100.141Z" fill="#EB5954"/>
</g>
<g style="mix-blend-mode:multiply" opacity="0.5">
<path d="M52.2632 86.0157C52.589 85.2782 52.6214 84.572 52.3357 84.4384C52.0499 84.3047 51.5542 84.7943 51.2285 85.5318C50.9027 86.2693 50.8703 86.9755 51.156 87.1091C51.4418 87.2427 51.9375 86.7532 52.2632 86.0157Z" fill="#EB5954"/>
</g>
<g style="mix-blend-mode:multiply" opacity="0.5">
<path d="M57.6187 62.1993C57.9444 61.4618 57.9769 60.7556 57.6911 60.6219C57.4054 60.4883 56.9097 60.9779 56.5839 61.7154C56.2582 62.4529 56.2258 63.1591 56.5115 63.2927C56.7973 63.4263 57.293 62.9368 57.6187 62.1993Z" fill="#EB5954"/>
</g>
<g style="mix-blend-mode:multiply" opacity="0.5">
<path d="M70.6031 63.8809C70.9288 63.1434 70.9612 62.4372 70.6755 62.3036C70.3898 62.17 69.8941 62.6595 69.5683 63.397C69.2426 64.1345 69.2102 64.8407 69.4959 64.9744C69.7816 65.108 70.2773 64.6184 70.6031 63.8809Z" fill="#EB5954"/>
</g>
<g style="mix-blend-mode:multiply" opacity="0.5">
<path d="M24.939 60.2364C25.2647 59.4989 25.2972 58.7927 25.0114 58.6591C24.7257 58.5254 24.23 59.015 23.9043 59.7525C23.5785 60.49 23.5461 61.1962 23.8318 61.3298C24.1176 61.4634 24.6133 60.9739 24.939 60.2364Z" fill="#EB5954"/>
</g>
<g style="mix-blend-mode:multiply" opacity="0.5">
<path d="M37.9664 75.6953C38.2922 74.9577 38.3246 74.2515 38.0389 74.1178C37.7531 73.9842 37.2574 74.4738 36.9316 75.2114C36.6059 75.949 36.5734 76.6552 36.8592 76.7888C37.1449 76.9224 37.6406 76.4328 37.9664 75.6953Z" fill="#EB5954"/>
</g>
<g style="mix-blend-mode:multiply" opacity="0.5">
<path d="M28.8883 74.09C29.2111 73.3528 29.2412 72.6479 28.9556 72.5155C28.67 72.383 28.1768 72.8733 27.854 73.6105C27.5312 74.3477 27.5011 75.0527 27.7867 75.1851C28.0723 75.3175 28.5655 74.8272 28.8883 74.09Z" fill="#EB5954"/>
</g>
<path d="M73.9269 70.7706L94.5626 67.9363L94.5928 67.8799L94.5796 67.8178L94.4852 67.7109L73.5984 70.3976L65.0137 90.4186L65.3176 90.6537L73.9269 70.7706Z" fill="#4A368C"/>
<path d="M94.5572 67.6871L92.9241 57.4687L92.5843 57.457L92.59 57.492L92.5843 57.4706L92.3672 57.9699H92.6825L94.3552 67.7686L94.5572 67.6871Z" fill="#4A368C"/>
<path d="M89.5878 57.9941L85.0566 66.7167L90.6621 66.0348C88.5683 61.1995 89.5897 58.0466 89.5897 58.0466L89.5878 57.9941Z" fill="#DEEAF8"/>
<g style="mix-blend-mode:multiply" opacity="0.7">
<path d="M86.8346 82.3558C84.1442 81.773 80.9705 80.2188 80.793 79.5078C80.7083 79.6068 80.6441 79.7224 80.6042 79.8478C80.4588 80.5141 83.7836 82.1537 86.6024 82.789L86.8346 82.3558Z" fill="#4A368C"/>
</g>
<path d="M84.9584 78.4035C86.0704 78.7377 87.1674 79.167 87.1674 79.167C87.1674 79.167 81.3599 76.4473 81.2976 75.3594C81.2354 75.3915 81.1855 75.4442 81.156 75.509C80.9181 76.1248 83.178 77.4613 84.9584 78.4035Z" fill="#4A368C"/>
<path d="M83.2846 75.3719C84.0209 75.6323 84.7308 75.9062 85.2745 76.1238C84.1568 75.6245 82.5483 74.7638 82.7918 74.0547C82.7293 74.1021 82.6778 74.1632 82.6408 74.2334C82.4558 74.5909 82.7767 74.995 83.2846 75.3719Z" fill="#4A368C"/>
<g style="mix-blend-mode:multiply" opacity="0.7">
<path d="M79.9637 77.609C79.8542 78.0384 81.6629 79.1359 83.128 79.8586C84.1399 80.1034 85.0462 80.4181 85.0462 80.4181C85.0462 80.4181 80.5377 78.2812 80.2129 77.4536C80.1053 77.405 79.9826 77.541 79.9637 77.609Z" fill="#4A368C"/>
</g>
<path d="M81.0559 75.09C81.0559 75.09 80.3196 75.836 85.8004 78.6043C85.8004 78.6043 80.4215 76.2731 80.0968 76.8947C79.7721 77.5164 79.7702 78.1303 84.8017 80.3332C84.8017 80.3332 80.2705 78.3906 79.9646 79.2182C79.6588 80.0457 84.6601 82.0506 84.6601 82.0506C84.6601 82.0506 88.5852 83.2511 89.1497 82.3944C89.7142 81.5377 92.2404 76.6791 90.1371 75.836C88.0339 74.9929 83.0572 73.2309 82.7192 74.1828C82.5644 74.6354 82.9175 75.0414 86.684 76.751C86.684 76.7568 81.1711 73.9302 81.0559 75.09Z" fill="#F9CFD2"/>
<path d="M85.8634 78.7806C86.7791 79.1691 87.4587 79.3945 87.4587 79.3945C81.4436 76.4086 81.0547 75.3906 81.0547 75.3906C81.0587 75.4188 81.0644 75.4467 81.0717 75.4742C81.74 76.4261 84.5059 78.0307 85.8634 78.7806Z" fill="#F6ADA0"/>
<path d="M85.0883 80.544C86.0323 80.8626 85.5603 80.577 85.5603 80.577C79.3771 77.9836 80.0851 77.4688 80.0851 77.4688C80.0851 77.4688 80.1002 77.5232 80.1078 77.5504C80.8328 78.4576 83.6893 79.8815 85.0883 80.544Z" fill="#F6ADA0"/>
<path d="M82.742 74.377L82.6797 74.3944C82.8779 74.9404 83.9277 75.4844 84.8433 75.8652L86.5425 76.4325C82.5098 74.9268 82.742 74.377 82.742 74.377Z" fill="#F6ADA0"/>
<path d="M82.1924 75.6239C82.2921 75.4281 82.0996 75.1221 81.7624 74.9404C81.4253 74.7586 81.0712 74.77 80.9715 74.9658C80.8718 75.1616 81.0643 75.4676 81.4014 75.6494C81.7386 75.8311 82.0927 75.8197 82.1924 75.6239Z" fill="white"/>
<path d="M81.0675 77.6708C81.1672 77.4749 80.9748 77.1688 80.6376 76.987C80.3005 76.8053 79.9463 76.8167 79.8466 77.0126C79.7469 77.2084 79.9393 77.5145 80.2765 77.6963C80.6137 77.878 80.9678 77.8666 81.0675 77.6708Z" fill="white"/>
<path d="M81.1201 79.7997C81.2198 79.6039 81.0273 79.2979 80.6902 79.1161C80.3531 78.9344 79.9989 78.9458 79.8993 79.1416C79.7996 79.3374 79.992 79.6434 80.3292 79.8252C80.6663 80.0069 81.0204 79.9955 81.1201 79.7997Z" fill="white"/>
<path d="M83.8773 74.5803C83.9427 74.3641 83.6946 74.0925 83.3233 73.9736C82.9519 73.8546 82.5979 73.9334 82.5325 74.1496C82.4671 74.3658 82.7151 74.6374 83.0865 74.7564C83.4578 74.8753 83.8119 74.7965 83.8773 74.5803Z" fill="white"/>
<path d="M32.2818 86.8099C32.2818 86.8099 52.0113 84.0727 53.3744 81.4676C54.7375 78.8625 56.3593 72.3197 59.0856 70.9171C61.8118 69.5145 67.9761 67.7117 66.1598 69.3144C64.3436 70.9171 62.0705 71.1385 63.4128 71.1385C64.7552 71.1385 68.0629 71.2279 67.5437 73.6329C67.0245 76.0379 61.8118 76.3701 61.5739 77.5279C61.336 78.6857 60.8735 81.0655 58.2416 84.1718C55.3587 87.587 33.8621 102.303 22.9589 105.419C12.0558 108.535 32.2818 86.8099 32.2818 86.8099Z" fill="#F9CFD2"/>
<path d="M67.387 72.3499C66.9867 72.3169 65.8766 72.2333 64.7665 72.1808C64.4191 72.1613 64.0698 72.1536 63.7432 72.1419C63.4166 72.1302 63.1107 72.1419 62.8483 72.1419C62.5858 72.1419 62.3649 72.1594 62.2101 72.1633L61.9685 72.173C61.9494 72.1745 61.9308 72.1799 61.9137 72.1889C61.8966 72.1978 61.8814 72.2101 61.869 72.2251C61.8565 72.2401 61.8471 72.2575 61.8412 72.2762C61.8352 72.295 61.8329 72.3147 61.8344 72.3344C61.8359 72.354 61.8411 72.3732 61.8498 72.3908C61.8585 72.4084 61.8705 72.424 61.885 72.4368C61.8996 72.4496 61.9164 72.4594 61.9346 72.4655C61.9528 72.4716 61.972 72.474 61.9911 72.4724H62.0043L62.2385 72.453C62.3895 72.453 62.6009 72.416 62.8596 72.4102C63.1183 72.4044 63.426 72.3869 63.747 72.3888C64.0679 72.3908 64.4191 72.3888 64.7665 72.3888C65.9427 72.4005 67.1151 72.451 67.4493 72.4646C67.4266 72.4199 67.4078 72.383 67.387 72.3499Z" fill="#F6ADA0"/>
<path d="M67.5901 73.3007C67.1936 73.2754 66.0797 73.2093 64.962 73.1724C64.6146 73.1568 64.2653 73.153 63.9387 73.1471C63.6121 73.1413 63.3062 73.1471 63.0438 73.1471C62.7813 73.1471 62.5605 73.1666 62.4075 73.1705L62.1659 73.1841C62.1463 73.1855 62.1273 73.191 62.1098 73.2001C62.0924 73.2093 62.0769 73.2219 62.0642 73.2373C62.0515 73.2527 62.042 73.2705 62.0361 73.2898C62.0302 73.309 62.0281 73.3292 62.0299 73.3493C62.0333 73.3899 62.052 73.4275 62.082 73.454C62.112 73.4806 62.1509 73.4939 62.1904 73.4912H62.2017L62.4377 73.4718C62.5869 73.4621 62.7983 73.431 63.0589 73.4232C63.3194 73.4154 63.6253 73.394 63.9462 73.3921C64.2672 73.3901 64.6184 73.3765 64.9657 73.3785C66.0778 73.3785 67.1879 73.3979 67.5882 73.4076C67.5863 73.3688 67.5882 73.3338 67.5901 73.3007Z" fill="#F6ADA0"/>
<path d="M67.2873 74.2461L66.7738 74.2713C66.2621 74.2985 65.5787 74.3238 64.8971 74.3724L62.1671 74.5433C62.1473 74.5441 62.1278 74.5491 62.11 74.5579C62.0921 74.5667 62.0762 74.5791 62.0631 74.5945C62.0501 74.6098 62.0403 74.6278 62.0343 74.6472C62.0282 74.6666 62.0261 74.6871 62.028 74.7074C62.03 74.7277 62.0359 74.7473 62.0455 74.7652C62.0551 74.783 62.0681 74.7987 62.0838 74.8111C62.0995 74.8236 62.1174 74.8326 62.1366 74.8377C62.1558 74.8428 62.1758 74.8437 62.1954 74.8406L64.9084 74.5686C65.5881 74.4967 66.2697 74.4462 66.7794 74.3996L67.2023 74.3646C67.2382 74.3257 67.2609 74.2869 67.2873 74.2461Z" fill="#F6ADA0"/>
<path d="M65.933 68.9736C66.182 68.9384 66.3716 68.8184 66.3565 68.7057C66.3415 68.5929 66.1275 68.53 65.8785 68.5652C65.6296 68.6004 65.4399 68.7203 65.455 68.8331C65.47 68.9458 65.6841 69.0087 65.933 68.9736Z" fill="white"/>
<path d="M67.6571 72.8665C67.6656 72.753 67.4694 72.6449 67.2188 72.625C66.9683 72.6051 66.7583 72.681 66.7498 72.7945C66.7413 72.908 66.9375 73.0161 67.188 73.036C67.4386 73.0559 67.6486 72.98 67.6571 72.8665Z" fill="white"/>
<path d="M67.5145 73.8177C67.523 73.7042 67.3268 73.5961 67.0763 73.5762C66.8257 73.5563 66.6157 73.6322 66.6072 73.7457C66.5987 73.8592 66.7949 73.9673 67.0454 73.9872C67.296 74.0071 67.506 73.9312 67.5145 73.8177Z" fill="white"/>
<path d="M66.5874 74.982C66.8381 74.9639 67.035 74.8572 67.0273 74.7436C67.0195 74.6301 66.81 74.5527 66.5594 74.5708C66.3087 74.5889 66.1117 74.6956 66.1195 74.8091C66.1272 74.9227 66.3367 75 66.5874 74.982Z" fill="white"/>
<g style="mix-blend-mode:multiply">
<path d="M17.9336 122.029C17.9336 122.029 20.3162 125.468 24.13 126.439C27.9437 127.411 25.6951 125.565 27.7039 127.036C29.7127 128.506 31.5177 126.826 32.709 128.157C33.9003 129.487 38.0539 128.052 38.0539 128.052L43.1949 126.195C43.1949 126.195 45.7927 122.68 45.5548 122.331C45.3169 121.981 49.1647 123.836 46.8481 130.154C45.1961 134.663 46.8368 141.188 42.8833 140.943C42.8833 140.943 41.5617 140.207 41.0784 140.696C40.5951 141.186 40.7008 142.309 40.9425 142.659C41.1841 143.008 52.4045 150.074 55.8991 130.27L49.4082 122.47L44.1426 120.975C42.0372 121.357 40.0003 122.066 38.1011 123.077C35.1048 124.712 28.933 123.638 26.5258 123.451C24.1186 123.265 19.9896 122.797 19.9896 122.797L17.9336 122.029Z" fill="#F9F3E3"/>
</g>
<path d="M45.9471 120.066C45.9471 120.066 59.9729 120.628 55.4795 132.328C50.8804 144.301 39.0012 139.613 39.9546 137.863C40.908 136.113 41.9899 136.816 42.8149 136.115C46.8325 132.682 50.8483 124.344 44.8577 121.613L45.9471 120.066Z" fill="#9B9890"/>
<path d="M47.2117 123.629C46.9849 123.251 46.7064 122.909 46.3848 122.613C46.9116 121.726 47.6292 120.975 48.4823 120.418C49.8587 120.694 51.1902 121.169 52.4377 121.828C49.3697 121.795 47.848 122.943 47.2117 123.629Z" fill="#494543"/>
<path d="M47.0649 140.096C48.0334 134.989 47.1064 134.944 45.6055 132.877C46.1337 132.078 46.5924 131.233 46.9761 130.352C51.4261 132.877 49.9629 139.059 49.9629 139.059V139.115C49.0519 139.594 48.0743 139.925 47.0649 140.096Z" fill="#494543"/>
<path d="M47.7695 127.775C47.9088 127.043 47.9374 126.294 47.8545 125.554C49.7066 125.076 53.0238 124.829 56.3504 127.588C56.4316 128.851 56.2088 130.327 55.582 132.056C54.1623 130.45 51.3888 127.961 47.7695 127.775Z" fill="#494543"/>
<g style="mix-blend-mode:multiply">
<g style="mix-blend-mode:multiply">
<path d="M45.9458 120.068L45.1906 121.131C45.158 121.337 45.1384 121.544 45.1321 121.753C49.7029 124.103 47.8734 129.986 44.8848 133.888C51.5097 126.157 46.5632 122.295 46.2536 121.401C46.1731 121.189 46.144 120.96 46.1686 120.734C46.1933 120.508 46.271 120.292 46.3952 120.103C46.1101 120.076 45.9458 120.068 45.9458 120.068Z" fill="#7E7972"/>
</g>
</g>
<path d="M18.9553 85.9952C18.9553 85.9952 20.2259 93.4686 17.4128 100.008C14.5997 106.547 11.1485 123.455 25.1366 125.79L26.7697 125.884L28.7238 125.274C28.7238 125.274 33.944 126.676 41.2524 124.901L44.294 123.966C44.294 123.966 48.8252 119.623 45.9743 107.339C45.9743 107.339 46.6993 105.979 46.0649 104.163C45.4306 102.347 42.5061 92.4428 42.2417 83.5668L42.5589 77.8224C42.5589 77.8224 43.2405 76.4626 40.8352 76.9812C38.4299 77.4999 36.2493 79.1298 36.2493 79.1298C36.2493 79.1298 28.5784 78.1022 24.9478 81.0453C24.8118 80.9035 20.9528 78.3256 18.5928 79.5961C18.5928 79.5961 18.3663 83.0987 18.9553 85.9952Z" fill="#9C9992"/>
<path d="M20.8159 85.1049C21.9222 83.3818 19.9455 80.9107 18.6447 79.5684L18.5918 79.5936C18.5918 79.5936 18.3823 82.8242 18.8883 85.645C19.5981 85.9519 20.2986 85.9111 20.8159 85.1049Z" fill="#E4D8CC"/>
<g style="mix-blend-mode:multiply">
<path d="M19.545 107.99C19.545 107.99 18.9653 109.416 20.4984 111.098C21.6991 112.419 24.0856 113.48 24.0856 113.48L24.4632 111.926L19.545 107.99Z" fill="#7E7972"/>
</g>
<g style="mix-blend-mode:multiply">
<path d="M45.9848 107.439C45.9848 107.406 45.9716 107.375 45.9641 107.342C45.9641 107.342 45.9886 107.293 46.0264 107.204C46.1661 106.287 45.9867 105.844 45.9867 105.844L42.1484 111.252L43.0584 112.874C43.0584 112.874 44.8124 110.611 45.5128 108.95C45.7207 108.464 45.8789 107.958 45.9848 107.439Z" fill="#7E7972"/>
</g>
<path d="M42.5583 77.8223C42.5583 77.8223 42.7754 77.391 42.5319 77.1074C41.0441 78.0671 38.5256 79.8155 39.1071 80.3983C39.6886 80.9811 41.2499 82.4012 42.2487 83.3939L42.5583 77.8223Z" fill="#E4D8CC"/>
<path d="M32.482 102.203C25.9911 102.998 21.7695 118.784 21.7695 118.784L27.7601 123.362L28.723 125.274H28.7362H28.7664H28.7891H28.8287H28.8627L28.9307 125.29H28.959L29.076 125.315H29.1232L29.2176 125.334L29.2837 125.348L29.3857 125.367L29.4631 125.381L29.5858 125.402L29.6613 125.416L29.8709 125.451L29.9502 125.462L30.1125 125.488L30.2164 125.501L30.375 125.525L30.492 125.54L30.6676 125.561L30.7828 125.575L31.0773 125.608C34.4819 125.93 37.9149 125.674 41.2385 124.849L42.645 124.417C41.9125 120.314 38.2573 101.496 32.482 102.203Z" fill="#E1E0E0"/>
<path d="M23.625 113.259C23.625 113.259 24.5444 113.669 25.1354 113.669L24.9315 112.571L24.4991 112.033L24.0026 112.36L23.625 113.259Z" fill="#DEEAF8"/>
<path d="M32.9935 107.842C32.9935 107.842 32.3818 104.374 36.8073 102.412L37.0452 105.006L32.9935 107.842Z" fill="#DEEAF8"/>
<path d="M24.6504 103.778C24.6504 103.778 30.5409 103.389 32.8896 107.213C32.8896 107.213 35.512 102.904 42.0482 102.799L34.4226 108.298L29.7914 108.333L24.6504 103.778Z" fill="white"/>
<g style="mix-blend-mode:multiply">
<path d="M26.7613 125.883L27.6242 125.615C27.3485 124.377 26.5008 120.917 25.8268 121.871C25.0093 123.037 25.706 125.129 25.706 125.129C20.2893 125.145 17.5631 121.66 16.7871 120.467C18.3353 123.097 20.9539 125.094 25.1282 125.792L26.7613 125.883Z" fill="#7E7972"/>
</g>
<path d="M23.334 103.815C23.334 103.815 25.8469 120.488 27.5517 123.15C27.5517 123.15 31.845 124.201 33.548 126.373L33.7179 127.15H35.8627L35.9986 126.414C35.9986 126.414 38.9269 123.331 41.6852 123.226L43.0068 121.545V102.412C43.0068 102.412 38.1377 103.772 34.3221 106.966L34.1861 107.842L31.5977 107.947L31.6997 107.107C31.6997 107.107 27.8973 103.885 23.334 103.815Z" fill="#E04C48"/>
<g style="mix-blend-mode:multiply" opacity="0.5">
<g style="mix-blend-mode:multiply" opacity="0.5">
<path d="M29.5545 122.185C29.5545 122.185 29.2147 119.908 27.3418 120.155C28.299 121.138 28.9817 122.369 29.3185 123.717C30.7062 124.236 32.5621 125.118 33.5495 126.377L33.7194 127.154H33.81L31.7332 108.234C31.9428 110.228 33.0983 122.492 29.5545 122.185Z" fill="#EB5954"/>
</g>
<g style="mix-blend-mode:multiply" opacity="0.5">
<path d="M31.7294 108.223C31.7105 108.044 31.6992 107.945 31.6992 107.945L31.7294 108.223Z" fill="#EB5954"/>
</g>
</g>
<g style="mix-blend-mode:multiply" opacity="0.5">
<path d="M41.685 123.221L42.0003 122.832C42.0342 121.278 42.0814 119.256 42.0814 119.256C40.4125 119.885 40.3105 122.197 40.3105 122.197C34.9656 120.377 34.3312 106.977 34.3312 106.977L34.1953 107.853L35.8624 127.155L35.9983 126.419C35.9983 126.419 38.9266 123.332 41.685 123.221Z" fill="#EB5954"/>
</g>
<path d="M27.5203 126.161C28.54 126.161 29.3667 124.812 29.3667 123.148C29.3667 121.484 28.54 120.135 27.5203 120.135C26.5005 120.135 25.6738 121.484 25.6738 123.148C25.6738 124.812 26.5005 126.161 27.5203 126.161Z" fill="#524E4D"/>
<path d="M42.9327 125.175C43.9756 125.041 44.6581 123.594 44.457 121.942C44.256 120.291 43.2476 119.062 42.2047 119.196C41.1618 119.33 40.4794 120.778 40.6804 122.429C40.8814 124.08 41.8898 125.31 42.9327 125.175Z" fill="#524E4D"/>
<path d="M32.379 88.8222C32.379 88.8222 31.6974 81.2206 36.0209 83.4625C40.3444 85.7043 44.498 90.3978 41.3998 91.3438C38.3016 92.2899 35.1015 91.9402 35.1015 91.9402L32.379 88.8222Z" fill="#524E4D"/>
<path d="M31.5282 88.9262C31.5282 88.9262 29.9271 81.7092 25.8434 85.6334C21.7597 89.5576 19.749 93.305 22.3695 93.0952C24.9901 92.8854 30.8126 92.4988 30.8126 92.4988L31.5282 88.9262Z" fill="#524E4D"/>
<g style="mix-blend-mode:multiply">
<path d="M35.1246 94.1124C35.1246 94.1124 32.319 97.1002 29.3039 94.7418C27.0799 92.9934 29.6438 90.6777 29.6438 90.6777L35.1246 94.1124Z" fill="#7E7972"/>
</g>
<path d="M31.1543 89.4883C31.1543 89.4883 25.9114 92.3615 30.2009 94.7781C34.4904 97.1948 38.7799 90.9958 34.2525 89.6281L31.1543 89.4883Z" fill="#E1E0E0"/>
<path d="M32.3789 88.8222C32.3789 88.8222 30.1322 88.9271 31.7993 90.6424C33.4663 92.3578 34.2536 89.6264 34.2536 89.6264C34.2536 89.6264 34.6256 88.5774 32.3789 88.8222Z" fill="#2A2624"/>
<path d="M28.2548 84.4768C27.5732 84.4321 26.7727 84.7468 25.8438 85.6424C21.7582 89.5646 19.7494 93.3139 22.3699 93.1041L22.7475 93.075C23.4876 88.4553 26.969 85.4481 28.2548 84.4768Z" fill="#E1E0E0"/>
<path d="M41.7328 91.2109C44.1645 90.0259 40.1733 85.6141 36.0216 83.4616C35.6325 83.2771 35.2099 83.1791 34.7814 83.174C34.353 83.169 33.9283 83.2571 33.5352 83.4325C35.1645 83.7142 39.1066 85.0352 41.7328 91.2109Z" fill="#E1E0E0"/>
<path d="M29.1804 88.3068C29.504 88.2031 29.6642 87.7818 29.5383 87.3659C29.4124 86.95 29.0481 86.6968 28.7245 86.8005C28.401 86.9042 28.2407 87.3255 28.3666 87.7414C28.4925 88.1573 28.8569 88.4105 29.1804 88.3068Z" fill="#2A2624"/>
<path d="M35.2859 87.7677C35.6095 87.664 35.7697 87.2427 35.6438 86.8268C35.5179 86.4109 35.1535 86.1578 34.83 86.2615C34.5064 86.3652 34.3462 86.7864 34.4721 87.2023C34.598 87.6182 34.9624 87.8713 35.2859 87.7677Z" fill="#2A2624"/>
<g style="mix-blend-mode:multiply" opacity="0.5">
<path d="M41.3716 107.283C41.3716 107.283 40.7713 107.691 41.213 109.898C41.6548 112.105 43.0859 111.977 43.0859 111.977V111.481L41.3716 107.283Z" fill="#EB5954"/>
</g>
<g style="mix-blend-mode:multiply" opacity="0.5">
<path d="M24.4941 110.276C24.6641 111.234 24.8 112.024 24.9926 113.025C25.7836 113.04 26.5332 112.831 26.8805 112.166C27.9926 110.041 27.0335 108.949 27.0335 108.949L24.4941 110.276Z" fill="#EB5954"/>
</g>
<path d="M30.6777 91.6653C30.6777 91.6653 31.3423 92.6367 32.039 92.6367C32.7356 92.6367 32.9414 91.166 32.9414 91.166C32.9414 91.166 33.7589 93.6354 34.7803 91.6032" stroke="#2A2624" stroke-miterlimit="10" stroke-linecap="round"/>
<path d="M21.7919 104.1C21.7919 104.1 24.0726 107.882 25.3659 108.127C26.6592 108.372 27.9543 108.863 27.1368 111.315C26.3193 113.766 22.7114 112.286 20.2249 110.343C17.7384 108.401 21.7919 104.1 21.7919 104.1Z" fill="#9B9890"/>
<path d="M46.236 105.191C46.236 105.191 43.9213 105.226 43.1038 106.163C42.2863 107.099 40.7438 106.442 41.1969 109.057C41.5198 110.914 42.4902 112.632 44.1592 110.806C45.1542 109.725 45.8209 108.37 46.0774 106.905L46.236 105.191Z" fill="#9B9890"/>
<g style="mix-blend-mode:multiply">
<path d="M66.2946 118.842L65.413 119.555L62.5187 117.395L62.2921 117.783L65.0165 119.862L63.7157 120.913L61.5879 120.68L61.8163 121.731L62.6338 121.789L61.839 122.432L77.7264 123.864L84.3532 121.264L66.2946 118.842Z" fill="#F9F3E3"/>
</g>
<path d="M72.4648 109.688L77.9759 111.158L84.3459 109.695L78.0438 108.637L72.4648 109.688Z" fill="#D74C46"/>
<g style="mix-blend-mode:multiply" opacity="0.5">
<path d="M72.4648 109.688L77.9759 111.158L84.3459 109.695L78.0438 108.637L72.4648 109.688Z" fill="#EB5954"/>
</g>
<path d="M69.8516 101.841L74.4129 112.419L77.7264 111.135L73.7314 99.9492L69.8516 101.841Z" fill="#F7A600"/>
<path d="M78.4405 102.654L78.0195 115.157L80.6042 115.041L81.0346 102.748L78.4405 102.654Z" fill="#288B4C"/>
<g style="mix-blend-mode:multiply" opacity="0.5">
<path d="M73.2383 109.695L73.344 109.94C73.5894 110.401 74.1426 111.419 74.6939 112.314L77.7279 111.137L77.524 110.568L73.2383 109.695Z" fill="#F6A300"/>
</g>
<g style="mix-blend-mode:multiply">
<path d="M78.1348 111.64C78.6464 111.605 80.2606 111.494 80.3362 111.417C80.4648 111.378 80.597 111.353 80.7307 111.343L80.7459 110.084L78.1593 110.884L78.1348 111.64Z" fill="#288B4C"/>
</g>
<path d="M78.3125 106.406L80.9085 106.289L80.9217 105.887L78.3257 106.001L78.3125 106.406Z" fill="white"/>
<path d="M78.0004 111.139L72.4629 109.691V121.788L77.7304 123.875L78.0004 111.139Z" fill="#D5322A"/>
<path d="M85.1715 103.102L81.0859 113.891" stroke="#1C1A1B" stroke-miterlimit="10" stroke-linecap="round"/>
<path d="M77.7266 123.873L84.3553 121.275V109.691L78.0003 111.139L77.7266 123.873Z" fill="#E8433F"/>
<path d="M73.9613 100.744L73.4609 100.908" stroke="#1C1A1B" stroke-width="0.3" stroke-miterlimit="10" stroke-linecap="round"/>
<path d="M74.4043 101.805L73.8945 102.05" stroke="#1C1A1B" stroke-width="0.3" stroke-miterlimit="10" stroke-linecap="round"/>
<path d="M74.7988 102.984L74.2891 103.23" stroke="#1C1A1B" stroke-width="0.3" stroke-miterlimit="10" stroke-linecap="round"/>
<path d="M75.1972 104.061L74.6855 104.306" stroke="#1C1A1B" stroke-width="0.3" stroke-miterlimit="10" stroke-linecap="round"/>
<path d="M75.6289 105.309L75.1191 105.554" stroke="#1C1A1B" stroke-width="0.3" stroke-miterlimit="10" stroke-linecap="round"/>
<path d="M76.0605 106.57L75.5488 106.816" stroke="#1C1A1B" stroke-width="0.3" stroke-miterlimit="10" stroke-linecap="round"/>
<path d="M76.5371 107.762L76.0273 108.007" stroke="#1C1A1B" stroke-width="0.3" stroke-miterlimit="10" stroke-linecap="round"/>
<path d="M76.9668 109.025L76.457 109.273" stroke="#1C1A1B" stroke-width="0.3" stroke-miterlimit="10" stroke-linecap="round"/>
<path d="M77.4629 110.357L76.9531 110.603" stroke="#1C1A1B" stroke-width="0.3" stroke-miterlimit="10" stroke-linecap="round"/>
<g style="mix-blend-mode:multiply" opacity="0.3">
<path d="M77.7285 123.875L77.8323 120.714C73.5938 118.748 72.4629 109.691 72.4629 109.691V121.781L77.7285 123.875Z" fill="#EB5954"/>
</g>
<path d="M192.601 111.908C197.068 111.714 199.171 111.628 200.957 109.559C200.838 108.924 199.887 106.793 192.497 106.793C183.812 106.793 184.294 110.074 184.294 110.074V110.113C185.455 111.026 187.843 112.118 192.601 111.908Z" fill="#C0BDBD"/>
<g style="mix-blend-mode:multiply">
<path d="M198.523 122.876C198.557 121.844 194.776 120.875 190.078 120.711C185.381 120.548 181.545 121.251 181.511 122.283C181.477 123.314 185.258 124.283 189.955 124.447C194.653 124.611 198.489 123.907 198.523 122.876Z" fill="#F9F3E3"/>
</g>
<path d="M188.088 111.779C188.088 111.779 180.1 96.1306 192.536 93.6556C204.972 91.1807 197.621 111.779 197.621 111.779C197.621 111.779 191.539 112.9 188.088 111.779Z" fill="#009239"/>
<path d="M185.877 103.099L186.966 102.345L185.644 100.471L186.001 101.698C186.001 101.698 184.827 101.574 184.868 101.574C184.91 101.574 185.812 101.943 185.812 101.943H184.68L185.877 103.099Z" fill="#FED100"/>
<path d="M189.013 97.8574C189.013 97.8574 185.949 104.268 189.627 112.219" stroke="white" stroke-miterlimit="10"/>
<path d="M191.152 96.5645C191.638 101.78 191.806 107.022 191.656 112.259" stroke="white" stroke-miterlimit="10"/>
<path d="M192.24 95.1953C192.24 95.1953 194.999 96.526 193.909 112.219" stroke="white" stroke-miterlimit="10"/>
<path d="M192.004 93.6914C192.106 93.6914 197.621 95.6885 196.056 111.978" stroke="white" stroke-miterlimit="10"/>
<path d="M192.668 102.543L193.801 103.401L195.06 102.236H194.116L194.524 101.185L193.638 101.799C193.638 101.799 193.282 100.827 193.282 100.887C193.282 100.948 192.668 102.543 192.668 102.543Z" fill="#FED100"/>
<path d="M191.902 93.8322C191.902 93.8322 200.923 91.1358 197.963 110.578" stroke="white" stroke-miterlimit="10"/>
<path d="M196.582 97.7554L197.756 98.9814L199.018 98.6142L198.54 98.4393L198.591 97.3358L197.773 97.3882C197.773 97.3882 197.722 96.4771 197.654 96.5295C197.586 96.582 196.582 97.7554 196.582 97.7554Z" fill="#FED100"/>
<path d="M186.545 93.7254C186.454 93.7254 185.979 92.418 185.979 92.418L187.091 93.2359L187.159 92.1849L187.636 92.6745L187.953 91.6235L188.431 92.1849L188.522 91.2136L189.224 91.8683L189.702 90.9805L190.268 91.7031L190.972 91.0504L190.595 91.8683L191.548 91.6332L191.32 92.3578L191.775 92.1946L191.707 92.5832H192.728L192.432 92.9095H192.728L192.592 93.3311L193.204 93.401L192.977 93.7274L193.521 94.1489L193.068 94.4054L193.363 95.0348H193.068L193.363 95.6176L193.068 95.6875L193.295 96.0139C193.196 96.083 193.09 96.1385 192.977 96.179C192.909 96.179 193.045 96.6685 193.045 96.6685L192.5 96.5287L192.819 96.8317L191.956 96.5986L192.5 97.2513L192.024 97.0881L192.183 97.6496L191.639 97.3465L191.775 97.9759L191.478 97.906V98.4655C191.478 98.4655 191.139 98.4189 191.071 98.3237C191.003 98.2285 190.912 98.7219 190.912 98.7219L190.595 98.4888L190.434 99.2814L190.057 98.5587L189.807 99.3746L189.49 98.4888L189.262 98.955L189.103 98.3237L188.378 98.8851L188.537 98.2304L187.991 98.6287L188.127 98.1605L187.75 98.3004C187.75 98.3004 187.84 97.6709 187.908 97.6709C187.976 97.6709 186.638 98.0595 186.638 98.0595L186.955 97.4067L186.479 97.5L186.857 97.0085L186.479 97.0784L186.706 96.9153C186.706 96.9153 185.548 97.0784 185.616 97.0784C185.684 97.0784 186.864 96.7521 186.864 96.7521L185.775 96.6821L186.638 96.519C186.638 96.519 185.526 96.4257 185.694 96.4257C185.862 96.4257 187.032 96.1926 186.964 96.1926C186.896 96.1926 185.535 96.0275 185.694 96.0275C185.91 95.9929 186.123 95.9383 186.33 95.8643H185.784L186.556 95.4447C186.556 95.4447 186.011 95.5146 186.011 95.4447C186.011 95.3747 186.556 95.1183 186.556 95.1183L185.852 94.79L186.556 94.7201L185.852 94.3005L186.33 94.1373C186.143 94.0715 185.961 93.993 185.784 93.9022C185.818 93.9119 186.545 93.7254 186.545 93.7254Z" fill="#EB5D53"/>
<path d="M186.545 93.7254C186.454 93.7254 185.979 92.418 185.979 92.418L187.091 93.2359L187.159 92.1849L187.636 92.6745L187.953 91.6235L188.431 92.1849L188.522 91.2136L189.224 91.8683L189.702 90.9805L190.268 91.7031L190.972 91.0504L190.595 91.8683L191.548 91.6332L191.32 92.3578L191.775 92.1946L191.707 92.5832H192.728L192.432 92.9095H192.728L192.592 93.3311L193.204 93.401L192.977 93.7274L193.521 94.1489L193.068 94.4054L193.363 95.0348H193.068L193.363 95.6176L193.068 95.6875L193.295 96.0139C193.196 96.083 193.09 96.1385 192.977 96.179C192.909 96.179 193.045 96.6685 193.045 96.6685L192.5 96.5287L192.819 96.8317L191.956 96.5986L192.5 97.2513L192.024 97.0881L192.183 97.6496L191.639 97.3465L191.775 97.9759L191.478 97.906V98.4655C191.478 98.4655 191.139 98.4189 191.071 98.3237C191.003 98.2285 190.912 98.7219 190.912 98.7219L190.595 98.4888L190.434 99.2814L190.057 98.5587L189.807 99.3746L189.49 98.4888L189.262 98.955L189.103 98.3237L188.378 98.8851L188.537 98.2304L187.991 98.6287L188.127 98.1605L187.75 98.3004C187.75 98.3004 187.84 97.6709 187.908 97.6709C187.976 97.6709 186.638 98.0595 186.638 98.0595L186.955 97.4067L186.479 97.5L186.857 97.0085L186.479 97.0784L186.706 96.9153C186.706 96.9153 185.548 97.0784 185.616 97.0784C185.684 97.0784 186.864 96.7521 186.864 96.7521L185.775 96.6821L186.638 96.519C186.638 96.519 185.526 96.4257 185.694 96.4257C185.862 96.4257 187.032 96.1926 186.964 96.1926C186.896 96.1926 185.535 96.0275 185.694 96.0275C185.91 95.9929 186.123 95.9383 186.33 95.8643H185.784L186.556 95.4447C186.556 95.4447 186.011 95.5146 186.011 95.4447C186.011 95.3747 186.556 95.1183 186.556 95.1183L185.852 94.79L186.556 94.7201L185.852 94.3005L186.33 94.1373C186.143 94.0715 185.961 93.993 185.784 93.9022C185.818 93.9119 186.545 93.7254 186.545 93.7254Z" fill="#E62E26"/>
<path d="M192.978 96.179C193.09 96.1385 193.197 96.083 193.295 96.0138L193.068 95.6875L193.363 95.6175L193.068 95.0348H193.355L193.061 94.4053L193.514 94.1489L192.978 93.7254L193.204 93.399L192.593 93.3291L192.729 92.9076H192.432L192.729 92.5812H191.707L191.775 92.1927L191.32 92.3558L191.549 91.6312L190.595 91.8663L190.973 91.0484L190.269 91.7012L189.719 91.0018L189.698 90.9766L189.224 91.8605L188.522 91.2058L188.501 91.4311L188.524 91.5827H188.486L188.432 92.1829L187.965 91.6351H187.95L187.793 92.1519L188.046 92.6453L187.114 92.8959V92.9581L187.869 93.5797L187.093 93.6885L187.827 94.6093L187.114 94.7608L187.995 95.4485L186.617 95.9983C186.617 95.9983 188.048 96.3324 188.103 96.247C188.103 96.247 187.835 97.024 187.795 97.0978C187.979 96.9864 188.155 96.8631 188.324 96.7287L188.184 97.2707L188.972 96.8647L188.615 97.5621L189.321 97.1017C189.321 97.1017 189.223 97.7603 189.283 97.803C189.343 97.8458 189.608 97.296 189.608 97.296L189.519 98.2673L189.842 97.7603C189.784 97.9963 189.706 98.2265 189.608 98.448C189.513 98.5956 190.467 97.4261 190.506 97.364C190.546 97.3018 190.051 98.5296 189.957 98.685C189.931 98.7258 189.97 98.685 190.042 98.5878V98.5606C190.231 98.3236 190.591 97.8438 190.591 97.8438L190.214 98.7433L190.924 97.7719C190.924 97.7719 190.792 98.1818 190.669 98.549L190.71 98.5801L190.973 98.0148V98.3236L191.141 97.9215L191.297 98.4266L191.394 98.446L191.449 98.3081V97.8943L191.745 97.9643L191.609 97.3348L192.153 97.6379L191.994 97.0765L192.47 97.2396L191.926 96.5869L192.789 96.82L192.47 96.517L193.016 96.6569C193.016 96.6569 192.9 96.179 192.978 96.179Z" fill="#EB5D53"/>
<path d="M198.994 107.721L199.021 107.732L198.994 107.721Z" fill="#E3DBC9"/>
<path d="M197.85 107.34L197.976 107.373L197.85 107.34Z" fill="#E3DBC9"/>
<path d="M198.246 107.455L198.341 107.484L198.246 107.455Z" fill="#E3DBC9"/>
<path d="M197.43 107.238L197.569 107.271L197.43 107.238Z" fill="#E3DBC9"/>
<path d="M196.98 107.146L197.114 107.174L196.98 107.146Z" fill="#E3DBC9"/>
<path d="M199.963 108.244L199.996 108.269L199.963 108.244Z" fill="#E3DBC9"/>
<path d="M200.34 108.537L200.362 108.558L200.34 108.537Z" fill="#E3DBC9"/>
<path d="M200.459 108.662L200.49 108.696L200.459 108.662Z" fill="#E3DBC9"/>
<path d="M199.756 108.105L199.811 108.141L199.756 108.105Z" fill="#E3DBC9"/>
<path d="M199.273 107.846L199.338 107.879L199.273 107.846Z" fill="#E3DBC9"/>
<path d="M199.525 107.971L199.592 108.008L199.525 107.971Z" fill="#E3DBC9"/>
<path d="M200.947 109.484C200.947 109.471 200.947 109.455 200.934 109.438C200.939 109.455 200.943 109.471 200.947 109.484Z" fill="#E3DBC9"/>
<path d="M200.765 109.056L200.748 109.027L200.765 109.056Z" fill="#E3DBC9"/>
<path d="M200.69 108.94L200.664 108.904L200.69 108.94Z" fill="#E3DBC9"/>
<path d="M200.835 109.185L200.824 109.164L200.835 109.185Z" fill="#E3DBC9"/>
<path d="M195.844 106.971L195.979 106.986L195.844 106.971Z" fill="#E3DBC9"/>
<path d="M200.89 109.306L200.873 109.264L200.89 109.306Z" fill="#E3DBC9"/>
<path d="M200.599 108.825L200.57 108.787L200.599 108.825Z" fill="#E3DBC9"/>
<path d="M200.923 109.402C200.919 109.386 200.914 109.371 200.908 109.355C200.914 109.371 200.919 109.386 200.923 109.402Z" fill="#E3DBC9"/>
<path d="M195.221 106.904L195.424 106.924L195.221 106.904Z" fill="#E3DBC9"/>
<path d="M194.592 106.855L194.828 106.871L194.592 106.855Z" fill="#E3DBC9"/>
<path d="M193.936 106.818C194.019 106.818 194.1 106.818 194.183 106.83C194.1 106.83 194.019 106.818 193.936 106.818Z" fill="#E3DBC9"/>
<path d="M200.952 109.508C200.952 109.525 200.952 109.543 200.952 109.558C199.166 111.627 197.063 111.711 192.596 111.907C187.833 112.117 185.445 111.025 184.289 110.112V110.073L185.514 121.119C185.514 121.119 186.502 124.342 191.541 124.342C196.58 124.342 198.825 123.608 199.064 121.75C199.304 119.893 200.979 109.733 200.979 109.733C200.98 109.657 200.971 109.581 200.952 109.508Z" fill="#EDDDB5"/>
<path d="M197.18 103.097C197.231 103.097 198.014 102.256 198.014 102.256V103.227C198.014 103.227 198.83 103.052 198.769 103.052C198.709 103.052 197.765 104.156 197.765 104.156L197.18 103.097Z" fill="#FED100"/>
<path d="M195.749 106.672L197.059 107.705L196.514 108.931L196.344 108.389C196.344 108.389 195.645 108.564 195.696 108.564C195.747 108.564 195.8 108.145 195.8 108.145C195.8 108.145 195.152 108.038 195.152 107.968C195.152 107.898 195.749 106.672 195.749 106.672Z" fill="#FED100"/>
<path d="M190.592 110.349C190.643 110.349 191.238 110.119 191.238 110.119V109.682L191.664 109.735L191.834 109.068L192.446 109.805C192.446 109.805 191.288 110.776 191.238 110.776C191.015 110.646 190.799 110.503 190.592 110.349Z" fill="#FED100"/>
<path d="M189.162 106.072L190.065 107.001L191.188 106.214L190.54 105.967L190.353 105.478L190.065 105.286L189.825 104.619L189.162 106.072Z" fill="#FED100"/>
<path d="M187.814 108.051C187.695 108.051 186.81 107.439 186.861 107.439C186.959 107.431 187.055 107.414 187.15 107.387C187.099 107.387 186.793 106.825 186.793 106.825C186.966 106.771 187.143 106.73 187.322 106.703C187.441 106.703 187.441 106.283 187.441 106.283L188.154 107.369L187.797 108.121L187.814 108.051Z" fill="#FED100"/>
<g style="mix-blend-mode:multiply">
<g style="mix-blend-mode:multiply">
<path d="M190.863 57.171L152.852 64.0344L148.445 66.4297L138.314 67.5953L142.6 46.8672L190.863 54.8398V57.171Z" fill="#F9F3E3"/>
</g>
</g>
<path d="M147.008 54.3262L148.528 67.9403V54.4194L147.008 54.3262Z" fill="#D3943E"/>
<path d="M190.496 54.3262L192.016 67.9403V54.4194L190.496 54.3262Z" fill="#D3943E"/>
<path d="M144.716 54.7001L142.605 52.4583V46.8537L192.537 46.5273L198.371 49.7968L144.716 54.7001Z" fill="#E0A337"/>
<path d="M198.372 49.7988H144.717V54.704H198.372V49.7988Z" fill="#E0A337"/>
<path d="M142.605 52.4601L144.724 54.7019L144.903 49.1595L142.6 46.8672L142.605 52.4601Z" fill="#D3943E"/>
<path d="M152.547 54.4199H148.529V67.9408H152.547V54.4199Z" fill="#E0A337"/>
<path d="M195.92 54.4199H191.902V67.9408H195.92V54.4199Z" fill="#E0A337"/>
<path d="M148.529 54.709V55.9214L152.547 55.2861V54.7284L152.537 54.709H148.529Z" fill="#D3943E"/>
<path d="M191.898 54.709V55.9214L195.916 55.2861V54.7284L195.907 54.709H191.898Z" fill="#D3943E"/>
<path d="M170.523 49.0636H145.639C145.639 49.0636 144.006 48.813 146.342 47.9387C146.642 47.826 148.53 47.0664 148.53 47.0664L170.523 49.0636Z" fill="#D3943E"/>
<path d="M150.026 42.4414H148.835L147.406 44.0538C147.406 44.0538 147.168 44.1587 147.168 45.8741C147.168 47.5894 147.03 48.6773 148.461 48.6773C149.892 48.6773 170.522 49.0659 170.522 49.0659C170.522 49.0659 171.134 48.856 171.372 48.4714C171.61 48.0868 173.38 46.5093 173.38 46.5093C173.38 46.5093 173.279 46.1208 172.803 46.3695V43.1777C172.803 43.1777 173.62 42.4414 172.667 42.4414H150.026Z" fill="#FED100"/>
<path d="M170.761 44.8925C170.761 45.8638 170.422 48.432 171.705 47.346C172.117 46.9983 172.485 46.6486 172.795 46.332V43.1771C172.795 43.1771 172.848 43.1285 172.91 43.0586C171.941 43.5753 170.761 44.3174 170.761 44.8925Z" fill="white"/>
<g style="mix-blend-mode:multiply" opacity="0.5">
<path d="M149.826 47.5246C150.361 47.5246 150.795 47.0784 150.795 46.5279C150.795 45.9775 150.361 45.5312 149.826 45.5312C149.291 45.5312 148.857 45.9775 148.857 46.5279C148.857 47.0784 149.291 47.5246 149.826 47.5246Z" fill="#F6A300"/>
</g>
<path d="M153.221 45.752C153.221 45.752 154.252 45.9462 153.932 46.5291C153.613 47.1119 153.785 47.7939 154.52 47.7181" stroke="#F6A300" stroke-width="1.76" stroke-miterlimit="10"/>
<path d="M157.154 45.752C157.154 45.752 158.183 45.9462 157.864 46.5291C157.545 47.1119 157.717 47.7939 158.453 47.7181" stroke="#F6A300" stroke-width="1.76" stroke-miterlimit="10"/>
<path d="M163.932 44.8828V48.5233" stroke="#F6A300" stroke-width="1.76" stroke-miterlimit="10"/>
<path d="M165.451 44.9492V48.5897" stroke="#F6A300" stroke-width="1.76" stroke-miterlimit="10"/>
<g style="mix-blend-mode:multiply" opacity="0.5">
<path d="M150.675 43.9821C150.675 43.9821 147.258 44.2191 147.573 43.8655L148.836 42.4414H150.052L150.675 43.9821Z" fill="#F6A300"/>
</g>
<path d="M150.093 39.3219C150.093 39.3219 149.685 43.9843 150.673 43.9843C151.66 43.9843 168.309 43.7395 168.309 43.7395C168.309 43.7395 168.728 43.8911 169.364 43.4015C170 42.912 170.555 42.4554 170.555 42.4554L170.482 42.1873L170.431 38.7663C170.431 38.7663 170.974 38.1699 168.501 38.1699C166.028 38.1699 151.16 38.5895 151.16 38.5895L150.093 39.3219Z" fill="#F08300"/>
<path d="M170.413 38.7891C169.834 39.0882 168.714 39.7604 168.614 40.4772C168.489 41.3786 167.963 44.0536 170.47 42.1945L170.413 38.7891Z" fill="white"/>
<g style="mix-blend-mode:multiply" opacity="0.5">
<path d="M165.199 39.9688V43.6093" stroke="#F08300" stroke-width="2.89" stroke-miterlimit="10"/>
</g>
<g style="mix-blend-mode:multiply" opacity="0.5">
<path d="M166.719 39.9395V43.58" stroke="#F08300" stroke-width="2.89" stroke-miterlimit="10"/>
</g>
<path d="M151.412 34.9668V39.1474L167.845 39.0541L167.868 34.9668H151.412Z" fill="#D74C46"/>
<path d="M167.868 35.3555L167.391 35.5769C167.391 35.5769 167.136 37.4671 167.442 38.285C167.557 38.5939 167.713 38.5667 167.864 38.4132L167.868 35.3555Z" fill="white"/>
<g style="mix-blend-mode:multiply" opacity="0.5">
<path d="M151.412 39.1493L150.096 39.3242L151.162 38.5879L151.412 38.582V39.1493Z" fill="#F08300"/>
</g>
<g style="mix-blend-mode:multiply" opacity="0.5">
<path d="M167.866 35.3534C167.577 35.4722 167.314 35.6502 167.093 35.8766C166.872 36.103 166.699 36.3731 166.582 36.6705C166.189 37.6787 151.414 37.9565 151.414 37.9565V34.9668H167.866V35.3534Z" fill="#D74C46"/>
</g>
<g style="mix-blend-mode:multiply" opacity="0.5">
<path d="M154.25 34.9668V39.1474" stroke="#D74C46" stroke-width="7.21" stroke-miterlimit="10"/>
</g>
<path d="M150.006 31.5117V34.9677H168.729L168.776 31.5117H150.006Z" fill="#E3DBC9"/>
<path d="M168.774 31.6602L168.334 31.7048C168.334 31.7048 168.24 32.9229 168.266 33.7543C168.276 34.0846 168.24 34.7354 168.742 34.7004L168.774 31.6602Z" fill="white"/>
<path d="M166.492 31.5117H164.955V34.9677H166.492V31.5117Z" fill="#D74C46"/>
<path d="M209.133 144.713C133.203 172.44 76.0611 159.287 39.1055 144.594L89.5701 140.566C121.298 139.973 189.754 140.068 209.133 144.713Z" fill="#E0A337"/>
</svg>
